<svg width="192" height="18" viewBox="0 0 192 18" fill="none" xmlns="http://www.w3.org/2000/svg">
<path fill-rule="evenodd" clip-rule="evenodd" d="M83.5987 8.46438C83.5987 9.45434 82.7961 10.2569 81.8062 10.2569C80.8162 10.2569 80.0137 9.45434 80.0137 8.46438C80.0137 7.47443 80.8162 6.67188 81.8062 6.67188C82.7961 6.67188 83.5987 7.47443 83.5987 8.46438Z" fill="#FE2C55"/>
<path fill-rule="evenodd" clip-rule="evenodd" d="M83.5987 13.9624C83.5987 14.9524 82.7961 15.7549 81.8062 15.7549C80.8162 15.7549 80.0137 14.9524 80.0137 13.9624C80.0137 12.9725 80.8162 12.1699 81.8062 12.1699C82.7961 12.1699 83.5987 12.9725 83.5987 13.9624Z" fill="#25F4EE"/>
<path fill-rule="evenodd" clip-rule="evenodd" d="M0 0.0507812H0.503533H13.2507L12.0335 3.84194L8.59591 3.84031L8.60406 17.0609L8.60324 17.8537H4.31262V17.5815V3.84031H0.505977L0.00325911 3.84846L0 0.0507812Z" fill="black"/>
<path fill-rule="evenodd" clip-rule="evenodd" d="M35.3164 0.0507812H35.8199H48.8735L47.657 3.84194L43.9123 3.84031L43.9204 17.0609L43.9188 17.8626H39.629C39.629 17.8626 39.629 17.7282 39.629 17.5815V3.84031H35.8215L35.3188 3.84846L35.3164 0.0507812Z" fill="black"/>
<path fill-rule="evenodd" clip-rule="evenodd" d="M14.0586 6.09991V5.71289H18.3068L18.3085 6.09991L18.315 16.7353L18.3019 17.8523H14.0838V17.2469L14.0586 6.09991Z" fill="black"/>
<path fill-rule="evenodd" clip-rule="evenodd" d="M20.3511 0.839222V0H21.1985H23.8441H24.5529V0.729227L24.557 8.292L28.8003 4.16515L33.8658 4.16596L28.547 9.32758L34.5046 17.8526H29.8294L25.8525 11.9414L24.5928 13.1644L24.5945 17.8616L20.3682 17.8526V17.4729L20.3511 0.839222Z" fill="black"/>
<path fill-rule="evenodd" clip-rule="evenodd" d="M63.9478 0.839222V0H64.7951H67.4407H68.1496V0.729227L68.1536 8.292L72.397 4.16515L77.4625 4.16596L72.1428 9.32758L78.1013 17.8526H73.4253L69.4491 11.9414L68.1895 13.1644L68.1911 17.8616L63.9649 17.8526V17.4729L63.9478 0.839222Z" fill="black"/>
<path fill-rule="evenodd" clip-rule="evenodd" d="M58.256 11.5294C58.1713 11.8325 58.054 12.1136 57.9016 12.3743C57.7492 12.6359 57.5667 12.8722 57.3541 13.0856C57.1406 13.2983 56.9027 13.4816 56.6419 13.6332C56.3804 13.7855 56.1001 13.902 55.8003 13.9843C55.5428 14.0552 55.2747 14.0935 54.9977 14.1041C55.0132 14.1041 55.0279 14.1041 55.0425 14.1049C55.0124 14.1057 54.9831 14.1082 54.9529 14.1082C54.9366 14.1082 54.9203 14.1066 54.904 14.1066C54.8902 14.1066 54.8763 14.1082 54.8625 14.1082C54.6645 14.1082 54.4714 14.0911 54.2823 14.0609C54.1577 14.0414 54.0338 14.0169 53.9133 13.9843C53.611 13.902 53.3282 13.7855 53.0667 13.6332C52.8052 13.4816 52.5672 13.2983 52.3538 13.0856C52.1411 12.8722 51.9578 12.6359 51.8054 12.3743C51.6531 12.1136 51.5341 11.8325 51.4502 11.5294C51.3654 11.2271 51.3239 10.9118 51.3231 10.5826C51.3231 10.2535 51.3646 9.93655 51.4494 9.63263C51.5333 9.32872 51.6514 9.04681 51.8038 8.78689C51.9562 8.5278 52.1387 8.29151 52.3513 8.07885C52.5648 7.8662 52.8019 7.6845 53.0634 7.53458C53.325 7.38385 53.6069 7.26815 53.91 7.18504C54.0338 7.15163 54.1609 7.12719 54.2897 7.10682C54.4746 7.0783 54.6645 7.06201 54.8592 7.06201C54.8747 7.06201 54.891 7.06282 54.9073 7.06364C54.9211 7.06282 54.935 7.06201 54.9488 7.06201C54.9839 7.06201 55.0181 7.06364 55.0523 7.06445L55.0157 7.06527C55.4442 7.08319 55.85 7.172 56.2321 7.33333C56.6607 7.5134 57.0339 7.7619 57.3508 8.07885C57.6686 8.3958 57.9195 8.76734 58.1037 9.1951C58.2894 9.62286 58.3815 10.0848 58.3815 10.5826C58.3815 10.9118 58.3399 11.2271 58.256 11.5294ZM61.5476 7.72368C61.1663 6.84372 60.6497 6.07783 59.9963 5.42519C59.3428 4.77337 58.5753 4.26169 57.6937 3.89015C57.6123 3.85593 57.5308 3.82334 57.4485 3.79238C57.4183 3.78179 57.3882 3.77119 57.358 3.75979C57.3067 3.74105 57.2562 3.72312 57.2049 3.70601C57.1658 3.69298 57.1266 3.68075 57.0875 3.66853C57.0476 3.6555 57.0069 3.64327 56.9661 3.63187C56.9197 3.61802 56.8733 3.60335 56.826 3.59113C56.8081 3.58624 56.7901 3.58217 56.773 3.57728C56.5685 3.5235 56.3608 3.47869 56.1505 3.44284C56.144 3.44121 56.1367 3.44039 56.1294 3.43876C56.0552 3.42654 55.9811 3.41514 55.9069 3.40454C55.7456 3.38336 55.5843 3.36543 55.4205 3.35321C55.2983 3.34507 55.1753 3.33936 55.0522 3.3361C54.9895 3.33366 54.9284 3.33203 54.8648 3.33203C54.807 3.33203 54.7491 3.33366 54.6913 3.33529C54.5577 3.33855 54.4248 3.34344 54.2928 3.35321C54.0093 3.37358 53.7315 3.41188 53.4577 3.46321C53.4121 3.47136 53.3664 3.48032 53.32 3.48928C53.2785 3.49824 53.2369 3.50721 53.1962 3.51617C53.1008 3.53817 53.0055 3.56098 52.9118 3.58542C52.2885 3.75571 51.7076 3.99444 51.169 4.30406C50.6304 4.61367 50.1416 4.98766 49.7032 5.42519C49.264 5.86354 48.8884 6.34997 48.5747 6.88365C48.261 7.41814 48.0182 7.99826 47.8455 8.62401C47.672 9.25058 47.5856 9.90159 47.5864 10.5795C47.5864 11.2573 47.6736 11.9067 47.848 12.53C48.0207 13.1517 48.2651 13.7318 48.5788 14.2696C48.8925 14.8073 49.2689 15.2954 49.7089 15.7337C50.1481 16.1721 50.6369 16.5477 51.1755 16.8606C51.7149 17.1735 52.2958 17.4146 52.9191 17.5841C53.0202 17.611 53.1212 17.6354 53.223 17.6582C53.2581 17.6664 53.2931 17.6729 53.3282 17.6802C53.3958 17.6949 53.4642 17.7079 53.5318 17.7202C53.5734 17.7267 53.6141 17.7348 53.6557 17.7414C53.7249 17.7519 53.795 17.7617 53.8659 17.7715C53.9009 17.7764 53.9368 17.7813 53.9726 17.7854C54.0835 17.7984 54.1959 17.809 54.3083 17.8171C54.4501 17.8277 54.5927 17.8326 54.7361 17.8359C54.7817 17.8367 54.8273 17.8383 54.873 17.8383C54.9178 17.8383 54.9626 17.8367 55.0074 17.8359C55.1508 17.8326 55.2942 17.8277 55.436 17.8171C55.5696 17.8073 55.7024 17.7927 55.8344 17.7764C55.9191 17.765 56.0031 17.7536 56.0862 17.7397C56.1326 17.7316 56.1791 17.7234 56.2247 17.7145C56.2842 17.7039 56.3436 17.6925 56.4031 17.6794C56.4398 17.6721 56.4773 17.6639 56.5139 17.6558C56.6109 17.6338 56.7087 17.6102 56.804 17.5841C57.42 17.4146 57.9976 17.1735 58.5362 16.8606C59.074 16.5477 59.5628 16.1721 60.002 15.7337C60.4404 15.2954 60.8168 14.8073 61.1297 14.2696C61.4433 13.7318 61.6861 13.1517 61.8597 12.53C62.0324 11.9067 62.1196 11.2573 62.1188 10.5795C62.118 9.55612 61.9273 8.60364 61.5476 7.72368Z" fill="black"/>
<path fill-rule="evenodd" clip-rule="evenodd" d="M18.3226 2.18518C18.3226 3.36498 17.3661 4.32153 16.1863 4.32153C15.0073 4.32153 14.0508 3.36498 14.0508 2.18518C14.0508 1.00538 15.0073 0.0488281 16.1863 0.0488281C17.3661 0.0488281 18.3226 1.00538 18.3226 2.18518Z" fill="black"/>
<path fill-rule="evenodd" clip-rule="evenodd" d="M90.4282 6.69023V9.94364H94.8973V12.335H90.4282V17.7842H87.7036V4.2793H96.0535V6.69023H90.4282Z" fill="black"/>
<path fill-rule="evenodd" clip-rule="evenodd" d="M103.325 13.1987C103.325 11.768 102.286 10.8074 101.012 10.8074C99.7387 10.8074 98.699 11.768 98.699 13.1987C98.699 14.6099 99.7387 15.5705 101.012 15.5705C102.286 15.5705 103.325 14.6099 103.325 13.1987ZM96.0933 13.1988C96.0933 10.2974 98.4057 8.41602 101.012 8.41602C103.619 8.41602 105.932 10.2974 105.932 13.1988C105.932 16.0798 103.619 17.962 101.012 17.962C98.4057 17.962 96.0933 16.0798 96.0933 13.1988Z" fill="black"/>
<path fill-rule="evenodd" clip-rule="evenodd" d="M114.144 8.71015L113.556 11.1602C113.008 10.8661 112.557 10.827 112.243 10.827C110.93 10.827 110.028 12.0418 110.028 14.6491V17.7852H107.461V8.65149H110.008V10.5923C110.518 9.06295 111.557 8.41602 112.694 8.41602C113.184 8.41602 113.733 8.49424 114.144 8.71015Z" fill="black"/>
<path fill-rule="evenodd" clip-rule="evenodd" d="M125.618 13.6484C125.618 12.8059 125.05 11.9243 123.756 11.9243H121.071V15.3732H123.717C124.991 15.3732 125.618 14.5503 125.618 13.6484ZM121.071 6.69014V9.65023H123.541C124.403 9.65023 124.932 9.08233 124.932 8.16082C124.932 7.33708 124.501 6.69014 123.541 6.69014H121.071ZM128.362 13.923C128.362 15.7847 127.088 17.7842 124.109 17.7842H118.346V4.2793H123.698C126.109 4.2793 127.657 5.73042 127.657 7.769C127.657 8.76873 127.265 10.1204 125.795 10.5718C127.519 10.8651 128.362 12.3936 128.362 13.923Z" fill="black"/>
<path fill-rule="evenodd" clip-rule="evenodd" d="M138.77 8.65039V17.7841H136.203V16.2946C135.81 17.4899 134.36 18 133.458 18C131.066 18 129.812 16.412 129.832 13.6678V8.65039H132.4V13.3932C132.4 14.8248 133.262 15.4717 134.144 15.4717C135.065 15.4717 136.203 14.9812 136.203 13.3346V8.65039H138.77Z" fill="black"/>
<path fill-rule="evenodd" clip-rule="evenodd" d="M140.298 14.8435H142.709C142.709 15.3723 143.16 15.941 144.062 15.941C144.806 15.941 145.374 15.6273 145.374 15.0977C145.374 14.7066 145.061 14.5102 144.375 14.3342L143.16 14.0401C140.807 13.4127 140.495 12.0993 140.495 11.1387C140.495 9.7283 141.964 8.41406 144.081 8.41406C145.747 8.41406 147.707 9.2378 147.687 11.3937H145.237C145.237 10.7859 144.728 10.4534 144.12 10.4534C143.532 10.4534 143.062 10.7468 143.062 11.2169C143.062 11.6487 143.454 11.8646 143.964 12.0015L145.473 12.3934C147.668 12.9817 147.942 14.3538 147.942 15.0977C147.942 17.0189 145.983 17.96 144.101 17.96C142.18 17.96 140.318 16.8625 140.298 14.8435Z" fill="black"/>
<path fill-rule="evenodd" clip-rule="evenodd" d="M149.491 17.7846H152.058V8.651H149.491V17.7846ZM149.138 5.4758C149.138 4.61376 149.883 3.94727 150.765 3.94727C151.667 3.94727 152.392 4.61376 152.392 5.4758C152.392 6.33783 151.667 7.02469 150.765 7.02469C149.883 7.02469 149.138 6.33783 149.138 5.4758Z" fill="black"/>
<path fill-rule="evenodd" clip-rule="evenodd" d="M163.093 12.7669V17.7843H160.525V13.0407C160.525 11.5912 159.663 10.9443 158.781 10.9443C157.86 10.9443 156.723 11.434 156.723 13.1002V17.7843H154.155V8.65067H156.723V10.18C157.115 8.94481 158.565 8.41602 159.466 8.41602C161.858 8.41602 163.112 10.0228 163.093 12.7669Z" fill="black"/>
<path fill-rule="evenodd" clip-rule="evenodd" d="M171.56 12.3751C171.482 11.2971 170.58 10.6502 169.423 10.6502C168.385 10.6502 167.463 11.1399 167.189 12.3751H171.56ZM174.089 14.0413H167.189C167.463 15.0997 168.326 15.6879 169.56 15.6879C170.482 15.6879 171.403 15.3156 171.952 14.6686L173.461 16.1776C172.599 17.3338 170.991 17.9612 169.384 17.9612C166.581 17.9612 164.523 16.0407 164.523 13.2183C164.523 10.2583 166.757 8.41602 169.384 8.41602C171.991 8.41602 174.127 10.2583 174.127 13.0611C174.127 13.3161 174.108 13.6298 174.089 14.0413Z" fill="black"/>
<path fill-rule="evenodd" clip-rule="evenodd" d="M175.048 14.8435H177.459C177.459 15.3723 177.91 15.941 178.812 15.941C179.557 15.941 180.125 15.6273 180.125 15.0977C180.125 14.7066 179.812 14.5102 179.125 14.3342L177.91 14.0401C175.558 13.4127 175.245 12.0993 175.245 11.1387C175.245 9.7283 176.714 8.41406 178.831 8.41406C180.497 8.41406 182.457 9.2378 182.438 11.3937H179.988C179.988 10.7859 179.478 10.4534 178.871 10.4534C178.282 10.4534 177.812 10.7468 177.812 11.2169C177.812 11.6487 178.204 11.8646 178.714 12.0015L180.223 12.3934C182.418 12.9817 182.693 14.3538 182.693 15.0977C182.693 17.0189 180.732 17.96 178.851 17.96C176.93 17.96 175.068 16.8625 175.048 14.8435Z" fill="black"/>
<path fill-rule="evenodd" clip-rule="evenodd" d="M183.672 14.8435H186.083C186.083 15.3723 186.534 15.941 187.436 15.941C188.181 15.941 188.748 15.6273 188.748 15.0977C188.748 14.7066 188.436 14.5102 187.749 14.3342L186.534 14.0401C184.182 13.4127 183.869 12.0993 183.869 11.1387C183.869 9.7283 185.339 8.41406 187.455 8.41406C189.121 8.41406 191.081 9.2378 191.062 11.3937H188.612C188.612 10.7859 188.102 10.4534 187.495 10.4534C186.906 10.4534 186.436 10.7468 186.436 11.2169C186.436 11.6487 186.828 11.8646 187.338 12.0015L188.847 12.3934C191.042 12.9817 191.317 14.3538 191.317 15.0977C191.317 17.0189 189.356 17.96 187.475 17.96C185.555 17.96 183.692 16.8625 183.672 14.8435Z" fill="black"/>
</svg>
