<svg width="192" height="18" viewBox="0 0 192 18" fill="none" xmlns="http://www.w3.org/2000/svg">
<path fill-rule="evenodd" clip-rule="evenodd" d="M83.5987 8.46438C83.5987 9.45434 82.7961 10.2569 81.8062 10.2569C80.8162 10.2569 80.0137 9.45434 80.0137 8.46438C80.0137 7.47443 80.8162 6.67188 81.8062 6.67188C82.7961 6.67188 83.5987 7.47443 83.5987 8.46438Z" fill="#FE2C55"/>
<path fill-rule="evenodd" clip-rule="evenodd" d="M83.5987 13.9624C83.5987 14.9524 82.7961 15.7549 81.8062 15.7549C80.8162 15.7549 80.0137 14.9524 80.0137 13.9624C80.0137 12.9725 80.8162 12.1699 81.8062 12.1699C82.7961 12.1699 83.5987 12.9725 83.5987 13.9624Z" fill="#25F4EE"/>
<path fill-rule="evenodd" clip-rule="evenodd" d="M0 0.0507812H0.503533H13.2507L12.0335 3.84194L8.59591 3.84031L8.60406 17.0609L8.60324 17.8537H4.31262V17.5815V3.84031H0.505977L0.00325911 3.84846L0 0.0507812Z" fill="white"/>
<path fill-rule="evenodd" clip-rule="evenodd" d="M35.3164 0.0507812H35.8199H48.8735L47.657 3.84194L43.9123 3.84031L43.9204 17.0609L43.9188 17.8626H39.629C39.629 17.8626 39.629 17.7282 39.629 17.5815V3.84031H35.8215L35.3188 3.84846L35.3164 0.0507812Z" fill="white"/>
<path fill-rule="evenodd" clip-rule="evenodd" d="M14.0586 6.09991V5.71289H18.3068L18.3085 6.09991L18.315 16.7353L18.3019 17.8523H14.0838V17.2469L14.0586 6.09991Z" fill="white"/>
<path fill-rule="evenodd" clip-rule="evenodd" d="M20.3516 0.839222V0H21.199H23.8446H24.5534V0.729227L24.5575 8.292L28.8008 4.16515L33.8663 4.16596L28.5475 9.32758L34.5051 17.8526H29.8299L25.853 11.9414L24.5933 13.1644L24.595 17.8616L20.3687 17.8526V17.4729L20.3516 0.839222Z" fill="white"/>
<path fill-rule="evenodd" clip-rule="evenodd" d="M63.9482 0.839222V0H64.7955H67.4411H68.15V0.729227L68.154 8.292L72.3974 4.16515L77.4629 4.16596L72.1432 9.32758L78.1017 17.8526H73.4257L69.4495 11.9414L68.1899 13.1644L68.1915 17.8616L63.9653 17.8526V17.4729L63.9482 0.839222Z" fill="white"/>
<path fill-rule="evenodd" clip-rule="evenodd" d="M58.2555 11.5294C58.1708 11.8325 58.0535 12.1136 57.9011 12.3743C57.7487 12.6359 57.5662 12.8722 57.3536 13.0856C57.1401 13.2983 56.9022 13.4816 56.6414 13.6332C56.3799 13.7855 56.0996 13.902 55.7998 13.9843C55.5423 14.0552 55.2742 14.0935 54.9972 14.1041C55.0127 14.1041 55.0274 14.1041 55.042 14.1049C55.0119 14.1057 54.9826 14.1082 54.9524 14.1082C54.9361 14.1082 54.9198 14.1066 54.9035 14.1066C54.8897 14.1066 54.8758 14.1082 54.862 14.1082C54.664 14.1082 54.4709 14.0911 54.2818 14.0609C54.1572 14.0414 54.0333 14.0169 53.9128 13.9843C53.6105 13.902 53.3277 13.7855 53.0662 13.6332C52.8047 13.4816 52.5667 13.2983 52.3533 13.0856C52.1406 12.8722 51.9573 12.6359 51.8049 12.3743C51.6526 12.1136 51.5336 11.8325 51.4497 11.5294C51.3649 11.2271 51.3234 10.9118 51.3226 10.5826C51.3226 10.2535 51.3641 9.93655 51.4489 9.63263C51.5328 9.32872 51.6509 9.04681 51.8033 8.78689C51.9557 8.5278 52.1382 8.29151 52.3508 8.07885C52.5643 7.8662 52.8014 7.6845 53.0629 7.53458C53.3245 7.38385 53.6064 7.26815 53.9095 7.18504C54.0333 7.15163 54.1604 7.12719 54.2892 7.10682C54.4741 7.0783 54.664 7.06201 54.8587 7.06201C54.8742 7.06201 54.8905 7.06282 54.9068 7.06364C54.9206 7.06282 54.9345 7.06201 54.9483 7.06201C54.9834 7.06201 55.0176 7.06364 55.0518 7.06445L55.0152 7.06527C55.4437 7.08319 55.8495 7.172 56.2316 7.33333C56.6602 7.5134 57.0334 7.7619 57.3503 8.07885C57.6681 8.3958 57.919 8.76734 58.1032 9.1951C58.2889 9.62286 58.381 10.0848 58.381 10.5826C58.381 10.9118 58.3394 11.2271 58.2555 11.5294ZM61.5471 7.72368C61.1658 6.84372 60.6492 6.07783 59.9958 5.42519C59.3423 4.77337 58.5748 4.26169 57.6932 3.89015C57.6118 3.85593 57.5303 3.82334 57.448 3.79238C57.4178 3.78179 57.3877 3.77119 57.3575 3.75979C57.3062 3.74105 57.2557 3.72312 57.2044 3.70601C57.1653 3.69298 57.1261 3.68075 57.087 3.66853C57.0471 3.6555 57.0064 3.64327 56.9656 3.63187C56.9192 3.61802 56.8728 3.60335 56.8255 3.59113C56.8076 3.58624 56.7896 3.58217 56.7725 3.57728C56.568 3.5235 56.3603 3.47869 56.15 3.44284C56.1435 3.44121 56.1362 3.44039 56.1289 3.43876C56.0547 3.42654 55.9806 3.41514 55.9064 3.40454C55.7451 3.38336 55.5838 3.36543 55.42 3.35321C55.2978 3.34507 55.1748 3.33936 55.0517 3.3361C54.989 3.33366 54.9279 3.33203 54.8643 3.33203C54.8065 3.33203 54.7486 3.33366 54.6908 3.33529C54.5572 3.33855 54.4243 3.34344 54.2923 3.35321C54.0088 3.37358 53.731 3.41188 53.4572 3.46321C53.4116 3.47136 53.3659 3.48032 53.3195 3.48928C53.278 3.49824 53.2364 3.50721 53.1957 3.51617C53.1003 3.53817 53.005 3.56098 52.9113 3.58542C52.288 3.75571 51.7071 3.99444 51.1685 4.30406C50.6299 4.61367 50.1411 4.98766 49.7027 5.42519C49.2635 5.86354 48.8879 6.34997 48.5742 6.88365C48.2605 7.41814 48.0177 7.99826 47.845 8.62401C47.6715 9.25058 47.5851 9.90159 47.5859 10.5795C47.5859 11.2573 47.6731 11.9067 47.8475 12.53C48.0202 13.1517 48.2646 13.7318 48.5783 14.2696C48.892 14.8073 49.2684 15.2954 49.7084 15.7337C50.1476 16.1721 50.6364 16.5477 51.175 16.8606C51.7144 17.1735 52.2953 17.4146 52.9186 17.5841C53.0197 17.611 53.1207 17.6354 53.2225 17.6582C53.2576 17.6664 53.2926 17.6729 53.3277 17.6802C53.3953 17.6949 53.4637 17.7079 53.5313 17.7202C53.5729 17.7267 53.6136 17.7348 53.6552 17.7414C53.7244 17.7519 53.7945 17.7617 53.8654 17.7715C53.9004 17.7764 53.9363 17.7813 53.9721 17.7854C54.083 17.7984 54.1954 17.809 54.3078 17.8171C54.4496 17.8277 54.5922 17.8326 54.7356 17.8359C54.7812 17.8367 54.8268 17.8383 54.8725 17.8383C54.9173 17.8383 54.9621 17.8367 55.0069 17.8359C55.1503 17.8326 55.2937 17.8277 55.4355 17.8171C55.5691 17.8073 55.7019 17.7927 55.8339 17.7764C55.9186 17.765 56.0026 17.7536 56.0857 17.7397C56.1321 17.7316 56.1786 17.7234 56.2242 17.7145C56.2837 17.7039 56.3431 17.6925 56.4026 17.6794C56.4393 17.6721 56.4768 17.6639 56.5134 17.6558C56.6104 17.6338 56.7082 17.6102 56.8035 17.5841C57.4195 17.4146 57.9971 17.1735 58.5357 16.8606C59.0735 16.5477 59.5623 16.1721 60.0015 15.7337C60.4399 15.2954 60.8163 14.8073 61.1292 14.2696C61.4428 13.7318 61.6856 13.1517 61.8592 12.53C62.0319 11.9067 62.1191 11.2573 62.1183 10.5795C62.1175 9.55612 61.9268 8.60364 61.5471 7.72368Z" fill="white"/>
<path fill-rule="evenodd" clip-rule="evenodd" d="M18.3226 2.18518C18.3226 3.36498 17.3661 4.32153 16.1863 4.32153C15.0073 4.32153 14.0508 3.36498 14.0508 2.18518C14.0508 1.00538 15.0073 0.0488281 16.1863 0.0488281C17.3661 0.0488281 18.3226 1.00538 18.3226 2.18518Z" fill="white"/>
<path fill-rule="evenodd" clip-rule="evenodd" d="M90.4277 6.69023V9.94364H94.8968V12.335H90.4277V17.7842H87.7031V4.2793H96.053V6.69023H90.4277Z" fill="white"/>
<path fill-rule="evenodd" clip-rule="evenodd" d="M103.325 13.1987C103.325 11.768 102.286 10.8074 101.012 10.8074C99.7392 10.8074 98.6994 11.768 98.6994 13.1987C98.6994 14.6099 99.7392 15.5705 101.012 15.5705C102.286 15.5705 103.325 14.6099 103.325 13.1987ZM96.0938 13.1988C96.0938 10.2974 98.4062 8.41602 101.012 8.41602C103.619 8.41602 105.932 10.2974 105.932 13.1988C105.932 16.0798 103.619 17.962 101.012 17.962C98.4062 17.962 96.0938 16.0798 96.0938 13.1988Z" fill="white"/>
<path fill-rule="evenodd" clip-rule="evenodd" d="M114.144 8.71015L113.556 11.1602C113.008 10.8661 112.557 10.827 112.243 10.827C110.93 10.827 110.028 12.0418 110.028 14.6491V17.7852H107.461V8.65149H110.008V10.5923C110.518 9.06295 111.557 8.41602 112.694 8.41602C113.184 8.41602 113.733 8.49424 114.144 8.71015Z" fill="white"/>
<path fill-rule="evenodd" clip-rule="evenodd" d="M125.618 13.6484C125.618 12.8059 125.05 11.9243 123.756 11.9243H121.071V15.3732H123.717C124.991 15.3732 125.618 14.5503 125.618 13.6484ZM121.071 6.69014V9.65023H123.541C124.403 9.65023 124.932 9.08233 124.932 8.16082C124.932 7.33708 124.501 6.69014 123.541 6.69014H121.071ZM128.362 13.923C128.362 15.7847 127.088 17.7842 124.109 17.7842H118.346V4.2793H123.698C126.109 4.2793 127.657 5.73042 127.657 7.769C127.657 8.76873 127.265 10.1204 125.795 10.5718C127.519 10.8651 128.362 12.3936 128.362 13.923Z" fill="white"/>
<path fill-rule="evenodd" clip-rule="evenodd" d="M138.77 8.65039V17.7841H136.203V16.2946C135.81 17.4899 134.36 18 133.458 18C131.066 18 129.812 16.412 129.832 13.6678V8.65039H132.4V13.3932C132.4 14.8248 133.262 15.4717 134.144 15.4717C135.065 15.4717 136.203 14.9812 136.203 13.3346V8.65039H138.77Z" fill="white"/>
<path fill-rule="evenodd" clip-rule="evenodd" d="M140.298 14.8435H142.709C142.709 15.3723 143.16 15.941 144.062 15.941C144.806 15.941 145.374 15.6273 145.374 15.0977C145.374 14.7066 145.061 14.5102 144.375 14.3342L143.16 14.0401C140.807 13.4127 140.495 12.0993 140.495 11.1387C140.495 9.7283 141.964 8.41406 144.081 8.41406C145.747 8.41406 147.707 9.2378 147.687 11.3937H145.237C145.237 10.7859 144.728 10.4534 144.12 10.4534C143.532 10.4534 143.062 10.7468 143.062 11.2169C143.062 11.6487 143.454 11.8646 143.964 12.0015L145.473 12.3934C147.668 12.9817 147.942 14.3538 147.942 15.0977C147.942 17.0189 145.983 17.96 144.101 17.96C142.18 17.96 140.318 16.8625 140.298 14.8435Z" fill="white"/>
<path fill-rule="evenodd" clip-rule="evenodd" d="M149.491 17.7846H152.058V8.651H149.491V17.7846ZM149.138 5.4758C149.138 4.61376 149.883 3.94727 150.765 3.94727C151.667 3.94727 152.392 4.61376 152.392 5.4758C152.392 6.33783 151.667 7.02469 150.765 7.02469C149.883 7.02469 149.138 6.33783 149.138 5.4758Z" fill="white"/>
<path fill-rule="evenodd" clip-rule="evenodd" d="M163.093 12.7669V17.7843H160.525V13.0407C160.525 11.5912 159.663 10.9443 158.781 10.9443C157.86 10.9443 156.723 11.434 156.723 13.1002V17.7843H154.155V8.65067H156.723V10.18C157.115 8.94481 158.565 8.41602 159.466 8.41602C161.858 8.41602 163.112 10.0228 163.093 12.7669Z" fill="white"/>
<path fill-rule="evenodd" clip-rule="evenodd" d="M171.56 12.3751C171.482 11.2971 170.58 10.6502 169.423 10.6502C168.385 10.6502 167.463 11.1399 167.189 12.3751H171.56ZM174.089 14.0413H167.189C167.463 15.0997 168.326 15.6879 169.56 15.6879C170.482 15.6879 171.403 15.3156 171.952 14.6686L173.461 16.1776C172.599 17.3338 170.991 17.9612 169.384 17.9612C166.581 17.9612 164.523 16.0407 164.523 13.2183C164.523 10.2583 166.757 8.41602 169.384 8.41602C171.991 8.41602 174.127 10.2583 174.127 13.0611C174.127 13.3161 174.108 13.6298 174.089 14.0413Z" fill="white"/>
<path fill-rule="evenodd" clip-rule="evenodd" d="M175.048 14.8435H177.459C177.459 15.3723 177.91 15.941 178.812 15.941C179.557 15.941 180.125 15.6273 180.125 15.0977C180.125 14.7066 179.812 14.5102 179.125 14.3342L177.91 14.0401C175.558 13.4127 175.245 12.0993 175.245 11.1387C175.245 9.7283 176.714 8.41406 178.831 8.41406C180.497 8.41406 182.457 9.2378 182.438 11.3937H179.988C179.988 10.7859 179.478 10.4534 178.871 10.4534C178.282 10.4534 177.812 10.7468 177.812 11.2169C177.812 11.6487 178.204 11.8646 178.714 12.0015L180.223 12.3934C182.418 12.9817 182.693 14.3538 182.693 15.0977C182.693 17.0189 180.732 17.96 178.851 17.96C176.93 17.96 175.068 16.8625 175.048 14.8435Z" fill="white"/>
<path fill-rule="evenodd" clip-rule="evenodd" d="M183.672 14.8435H186.083C186.083 15.3723 186.534 15.941 187.436 15.941C188.181 15.941 188.748 15.6273 188.748 15.0977C188.748 14.7066 188.436 14.5102 187.749 14.3342L186.534 14.0401C184.182 13.4127 183.869 12.0993 183.869 11.1387C183.869 9.7283 185.339 8.41406 187.455 8.41406C189.121 8.41406 191.081 9.2378 191.062 11.3937H188.612C188.612 10.7859 188.102 10.4534 187.495 10.4534C186.906 10.4534 186.436 10.7468 186.436 11.2169C186.436 11.6487 186.828 11.8646 187.338 12.0015L188.847 12.3934C191.042 12.9817 191.317 14.3538 191.317 15.0977C191.317 17.0189 189.356 17.96 187.475 17.96C185.555 17.96 183.692 16.8625 183.672 14.8435Z" fill="white"/>
</svg>
