<svg width="20" height="20" viewBox="0 0 20 20" fill="none" xmlns="http://www.w3.org/2000/svg">
<g transform="translate(2.63869 0.11101)">
<path d="M11.8613 15.2743C11.0191 15.6841 9.91922 15.889 8.56169 15.889C6.78896 15.889 5.3959 15.3654 4.38214 14.3186C3.36803 13.2719 2.86133 11.8777 2.86133 10.1362C2.86133 8.28024 3.43154 6.77522 4.57233 5.62079C5.71276 4.46601 7.19267 3.88898 9.0124 3.88898C10.1392 3.88898 11.0887 4.03467 11.8613 4.32642V6.88862C11.1006 6.44436 10.2343 6.22223 9.26217 6.22223C8.19458 6.22223 7.33298 6.5574 6.67772 7.22737C6.02209 7.89771 5.69446 8.8056 5.69446 9.95106C5.69446 11.0502 6.00343 11.9258 6.62173 12.5779C7.23968 13.2295 8.07221 13.5557 9.11934 13.5557C10.117 13.5557 11.0313 13.3332 11.861 12.889V15.2743H11.8613ZM" fill="white"/>
</g>
</svg>
