<svg width="32" height="32" viewBox="0 0 32 32" fill="none" xmlns="http://www.w3.org/2000/svg">
<path d="M8 19C9.32608 19 10.5979 19.5268 11.5355 20.4645C12.4732 21.4021 13 22.6739 13 24C13 25.3261 12.4732 26.5978 11.5355 27.5355C10.5979 28.4732 9.32608 29 8 29C6.67392 29 5.40215 28.4732 4.46447 27.5355C3.52678 26.5978 3 25.3261 3 24C3 22.6739 3.52678 21.4021 4.46447 20.4645C5.40215 19.5268 6.67392 19 8 19ZM24.8653 19.8027L28.8533 23.7893C28.8996 23.8355 28.9363 23.8904 28.9614 23.9508C28.9864 24.0112 28.9993 24.0759 28.9993 24.1413C28.9993 24.2067 28.9864 24.2715 28.9614 24.3319C28.9363 24.3923 28.8996 24.4471 28.8533 24.4933L24.8653 28.48C24.819 28.5263 24.764 28.5631 24.7035 28.5881C24.643 28.6132 24.5782 28.6261 24.5127 28.6261C24.4472 28.6261 24.3823 28.6132 24.3218 28.5881C24.2613 28.5631 24.2063 28.5263 24.16 28.48L23.4547 27.7733C23.4084 27.7271 23.3717 27.6723 23.3466 27.6119C23.3216 27.5515 23.3087 27.4867 23.3087 27.4213C23.3087 27.3559 23.3216 27.2912 23.3466 27.2308C23.3717 27.1704 23.4084 27.1155 23.4547 27.0693L25.388 25.1373H14.5827C14.5172 25.1373 14.4523 25.1244 14.3918 25.0994C14.3313 25.0743 14.2764 25.0376 14.2301 24.9913C14.1838 24.945 14.147 24.89 14.122 24.8295C14.0969 24.769 14.084 24.7041 14.084 24.6387V23.6427C14.084 23.368 14.308 23.1453 14.5827 23.1453H25.3893L23.456 21.212C23.4097 21.1658 23.373 21.1109 23.3479 21.0505C23.3229 20.9901 23.31 20.9254 23.31 20.86C23.31 20.7946 23.3229 20.7299 23.3479 20.6695C23.373 20.6091 23.4097 20.5542 23.456 20.508L24.16 19.8027C24.2063 19.7563 24.2613 19.7196 24.3218 19.6945C24.3823 19.6694 24.4472 19.6565 24.5127 19.6565C24.5782 19.6565 24.643 19.6694 24.7035 19.6945C24.764 19.7196 24.819 19.7563 24.8653 19.8027ZM8 21C7.20435 21 6.44129 21.3161 5.87868 21.8787C5.31607 22.4413 5 23.2043 5 24C5 24.7956 5.31607 25.5587 5.87868 26.1213C6.44129 26.6839 7.20435 27 8 27C8.79565 27 9.55871 26.6839 10.1213 26.1213C10.6839 25.5587 11 24.7956 11 24C11 23.2043 10.6839 22.4413 10.1213 21.8787C9.55871 21.3161 8.79565 21 8 21ZM24.896 6.57866C25.172 6.57866 25.3947 6.80132 25.3947 7.07732V12.7133C25.3947 12.8456 25.3421 12.9724 25.2486 13.0659C25.1551 13.1595 25.0283 13.212 24.896 13.212H23.8987C23.7664 13.212 23.6396 13.1595 23.5461 13.0659C23.4525 12.9724 23.4 12.8456 23.4 12.7133V9.97999L13.4693 19.9053C13.423 19.9518 13.3679 19.9888 13.3073 20.0139C13.2467 20.0391 13.1817 20.0521 13.116 20.0521C13.0503 20.0521 12.9853 20.0391 12.9247 20.0139C12.8641 19.9888 12.809 19.9518 12.7627 19.9053L12.0587 19.2C11.9655 19.1065 11.9132 18.9799 11.9132 18.848C11.9132 18.716 11.9655 18.5895 12.0587 18.496L21.9907 8.57199H19.256C19.1237 8.57199 18.9969 8.51945 18.9034 8.42594C18.8099 8.33242 18.7573 8.20558 18.7573 8.07333V7.07732C18.7573 6.80132 18.98 6.57866 19.256 6.57866H24.896ZM8.23067 3.14666L12.22 7.13199C12.2663 7.17819 12.303 7.23305 12.3281 7.29345C12.3531 7.35385 12.366 7.4186 12.366 7.48399C12.366 7.54938 12.3531 7.61413 12.3281 7.67453C12.303 7.73493 12.2663 7.7898 12.22 7.83599L11.5133 8.54132C11.4199 8.63447 11.2933 8.68677 11.1613 8.68677C11.0294 8.68677 10.9028 8.63447 10.8093 8.54132L8.876 6.60799V17.408C8.87565 17.54 8.82295 17.6665 8.72947 17.7597C8.63599 17.853 8.50936 17.9053 8.37733 17.9053H7.38C7.31451 17.9053 7.24967 17.8924 7.18917 17.8674C7.12867 17.8423 7.0737 17.8056 7.02739 17.7593C6.98108 17.713 6.94435 17.658 6.91929 17.5975C6.89423 17.537 6.88133 17.4721 6.88133 17.4067V6.60799L4.948 8.54132C4.90167 8.58785 4.8466 8.62476 4.78597 8.64995C4.72534 8.67514 4.66032 8.6881 4.59467 8.6881C4.52901 8.6881 4.464 8.67514 4.40336 8.64995C4.34273 8.62476 4.28767 8.58785 4.24133 8.54132L3.53733 7.83599C3.49105 7.7898 3.45433 7.73493 3.42928 7.67453C3.40423 7.61413 3.39134 7.54938 3.39134 7.48399C3.39134 7.4186 3.40423 7.35385 3.42928 7.29345C3.45433 7.23305 3.49105 7.17819 3.53733 7.13199L7.52667 3.14532C7.62013 3.05218 7.74671 2.99988 7.87867 2.99988C8.01062 2.99988 8.1372 3.05218 8.23067 3.14532V3.14666Z" fill="#2DE086"/>
</svg>
