<svg width="480" height="260" viewBox="0 0 480 260" fill="none" xmlns="http://www.w3.org/2000/svg">
  <rect width="480" height="260" rx="24" fill="#0B1120"/>
  <rect x="32" y="40" width="200" height="24" rx="12" fill="#111827"/>
  <rect x="40" y="46" width="96" height="12" rx="6" fill="#38BDF8"/>
  <rect x="32" y="80" width="416" height="120" rx="16" fill="#020617" stroke="#1E293B" stroke-width="1"/>
  <circle cx="80" cy="120" r="20" fill="#0EA5E9"/>
  <circle cx="80" cy="160" r="12" fill="#1E293B"/>
  <rect x="120" y="104" width="120" height="12" rx="6" fill="#E5E7EB"/>
  <rect x="120" y="124" width="96" height="10" rx="5" fill="#6B7280"/>
  <rect x="120" y="148" width="64" height="10" rx="5" fill="#38BDF8"/>
  <rect x="320" y="96" width="96" height="24" rx="12" fill="#111827"/>
  <rect x="328" y="102" width="56" height="12" rx="6" fill="#F97316"/>
  <rect x="320" y="136" width="96" height="48" rx="16" fill="#020617" stroke="#1E293B" stroke-width="1"/>
  <rect x="332" y="148" width="72" height="8" rx="4" fill="#E5E7EB" opacity="0.9"/>
  <rect x="332" y="162" width="48" height="8" rx="4" fill="#38BDF8" opacity="0.9"/>
</svg>
