<svg width="92" height="92" viewBox="0 0 92 92" fill="none" xmlns="http://www.w3.org/2000/svg">
<rect x="24" y="21" width="44.0003" height="44" rx="22" stroke="#9447FF"/>
<foreignObject x="0" y="0" width="92" height="92"><div xmlns="http://www.w3.org/1999/xhtml" style="backdrop-filter:blur(56.25px);clip-path:url(#bgblur_0_518_385_clip_path);height:100%;width:100%"></div></foreignObject><g filter="url(#filter0_d_518_385)" data-figma-bg-blur-radius="112.5">
<rect x="24" y="21" width="44.0003" height="44" rx="22" fill="#4FF09F"/>
<g filter="url(#filter1_d_518_385)">
<path d="M55.1912 51.9566C56.4509 50.4552 55.7911 47.6911 53.7703 44.9528C54.609 46.8175 54.694 48.4848 53.8265 49.5186C52.0788 51.6012 47.1277 50.3239 42.768 46.6656C41.7588 45.8188 40.8699 44.9186 40.1211 44.0093C40.941 45.7836 42.4379 47.7056 44.4452 49.3899C48.626 52.8979 53.4371 54.047 55.1912 51.9566Z" fill="black"/>
<path d="M54.9571 33.8092C53.4556 32.5495 50.6916 33.2093 47.9533 35.2301C49.818 34.3914 51.4853 34.3064 52.5191 35.1738C54.6017 36.9215 53.3244 41.8726 49.6661 46.2323C48.8193 47.2415 47.919 48.1305 47.0098 48.8792C48.7841 48.0593 50.7061 46.5624 52.3903 44.5552C55.8984 40.3744 57.0474 35.5632 54.9571 33.8092Z" fill="black"/>
<path d="M36.8093 34.0434C35.5496 35.5448 36.2094 38.3089 38.2302 41.0471C37.3915 39.1825 37.3065 37.5152 38.174 36.4814C39.9217 34.3987 44.8727 35.6761 49.2325 39.3343C50.2417 40.1811 51.1306 41.0814 51.8794 41.9907C51.0594 40.2163 49.5625 38.2944 47.5553 36.6101C43.3745 33.102 38.5633 31.953 36.8093 34.0434Z" fill="black"/>
<path d="M37.0434 52.1908C38.5448 53.4505 41.3089 52.7907 44.0471 50.7699C42.1825 51.6086 40.5152 51.6936 39.4814 50.8261C37.3987 49.0784 38.6761 44.1274 42.3343 39.7676C43.1811 38.7584 44.0814 37.8695 44.9907 37.1207C43.2163 37.9407 41.2944 39.4376 39.6101 41.4448C36.102 45.6256 34.953 50.4368 37.0434 52.1908Z" fill="black"/>
<path d="M45.9983 39.2299L45.9983 43.9534L43.3555 43.9534L45.9983 39.2299Z" fill="black"/>
<path d="M45.9997 46.77L45.9997 42.0465L48.6426 42.0465L45.9997 46.77Z" fill="black"/>
</g>
</g>
<defs>
<filter id="filter0_d_518_385" x="0" y="0" width="92" height="92" filterUnits="userSpaceOnUse" color-interpolation-filters="sRGB">
<feFlood flood-opacity="0" result="BackgroundImageFix"/>
<feColorMatrix in="SourceAlpha" type="matrix" values="0 0 0 0 0 0 0 0 0 0 0 0 0 0 0 0 0 0 127 0" result="hardAlpha"/>
<feOffset dy="3"/>
<feGaussianBlur stdDeviation="12"/>
<feColorMatrix type="matrix" values="0 0 0 0 0.223529 0 0 0 0 0.0705882 0 0 0 0 0.54902 0 0 0 0.06 0"/>
<feBlend mode="normal" in2="BackgroundImageFix" result="effect1_dropShadow_518_385"/>
<feBlend mode="normal" in="SourceGraphic" in2="effect1_dropShadow_518_385" result="shape"/>
</filter>
<clipPath id="bgblur_0_518_385_clip_path" transform="translate(0 0)"><rect x="24" y="21" width="44.0003" height="44" rx="22"/>
</clipPath><filter id="filter1_d_518_385" x="35" y="33" width="22" height="22" filterUnits="userSpaceOnUse" color-interpolation-filters="sRGB">
<feFlood flood-opacity="0" result="BackgroundImageFix"/>
<feColorMatrix in="SourceAlpha" type="matrix" values="0 0 0 0 0 0 0 0 0 0 0 0 0 0 0 0 0 0 127 0" result="hardAlpha"/>
<feOffset dy="1"/>
<feGaussianBlur stdDeviation="0.5"/>
<feComposite in2="hardAlpha" operator="out"/>
<feColorMatrix type="matrix" values="0 0 0 0 0 0 0 0 0 0 0 0 0 0 0 0 0 0 0.08 0"/>
<feBlend mode="normal" in2="BackgroundImageFix" result="effect1_dropShadow_518_385"/>
<feBlend mode="normal" in="SourceGraphic" in2="effect1_dropShadow_518_385" result="shape"/>
</filter>
</defs>
</svg>
