<svg width="32" height="32" viewBox="0 0 32 32" fill="none" xmlns="http://www.w3.org/2000/svg">
<path d="M28.6657 12.2485L28.837 12.2616C29.4017 12.3445 29.8347 12.832 29.8347 13.4193V26.0028L29.8215 26.176C29.78 26.453 29.6406 26.7061 29.4286 26.8891C29.2165 27.0722 28.9458 27.1731 28.6657 27.1736H19.4685L19.2954 27.1605C19.018 27.119 18.7647 26.9793 18.5816 26.7668C18.3985 26.5544 18.2978 26.2833 18.2977 26.0028V13.4212L18.3109 13.248C18.3956 12.6833 18.8812 12.2503 19.4685 12.2503H28.6657V12.2485ZM16.1198 24.7755V26.0028L16.1368 26.3303L16.1556 26.4903L16.1819 26.6503L16.2384 26.8743H2.16406V24.7755H16.1198ZM27.6963 14.1026H20.4361L20.1537 14.3849V25.0353L20.4361 25.3176H27.6963L27.9787 25.0353V14.3868L27.6963 14.1045V14.1026ZM26.0059 4.98822L26.2205 5.0014L26.4295 5.03716C27.2464 5.22916 27.8525 5.95951 27.8525 6.83481V10.0706H25.7556V7.36751L25.4732 7.08516H4.54336L4.261 7.36751V19.791L4.54336 20.0734H16.1198V22.1703H4.01065L3.79606 22.159C3.3465 22.106 2.93201 21.8899 2.6312 21.5516C2.33039 21.2133 2.16417 20.7764 2.16406 20.3237V6.83481L2.17724 6.62022C2.23021 6.17098 2.44608 5.75675 2.78397 5.45599C3.12185 5.15522 3.55829 4.98879 4.01065 4.98822H26.0059Z" fill="#2DE086"/>
</svg>
