<svg width="40" height="40" viewBox="0 0 40 40" fill="none" xmlns="http://www.w3.org/2000/svg">
<path d="M14.8435 6.6848C16.9701 2.43161 23.0397 2.4316 25.1663 6.6848L35.8666 28.0854C38.6916 33.7356 31.6895 39.1652 26.9207 35.0224L24.487 32.9082C23.6451 32.1768 23.5555 30.9014 24.2869 30.0595C25.0183 29.2176 26.2937 29.128 27.1356 29.8594L29.5693 31.9736C31.0007 33.2171 33.1022 31.5873 32.2543 29.8915L28.8871 23.1571L28.8869 23.1567L28.8746 23.1326C28.3445 22.1163 26.9855 21.8849 26.1489 22.6767L13.1392 34.9901C13.1181 35.0101 13.0965 35.0296 13.0746 35.0487C8.30481 39.1877 1.30687 33.7581 4.13114 28.1096L14.8435 6.6848ZM21.5541 8.4909C20.9158 7.21435 19.0941 7.21434 18.4558 8.4909L7.74335 29.9157C6.90189 31.5987 8.96404 33.215 10.3948 32.0263C10.3982 32.0234 10.4016 32.0204 10.4049 32.0173L23.3728 19.7436C24.1898 18.9703 25.1552 18.4905 26.1563 18.2829C26.2199 18.2697 26.2737 18.2277 26.302 18.1693C26.3303 18.1109 26.3299 18.0427 26.3009 17.9846L21.5541 8.4909Z" fill="black"/>
</svg>
