<svg width="17" height="16" viewBox="0 0 17 16" fill="none" xmlns="http://www.w3.org/2000/svg">
<path d="M5.50763 1.54613C6.53839 -0.515372 9.48028 -0.51538 10.511 1.54613L15.6974 11.9189C17.0667 14.6575 13.6728 17.2892 11.3614 15.2813L10.1818 14.2565C9.77371 13.902 9.7303 13.2838 10.0848 12.8757C10.4393 12.4677 11.0575 12.4243 11.4655 12.7788L12.6452 13.8035C13.3389 14.4062 14.3575 13.6163 13.9466 12.7943L12.3145 9.53018L12.3144 9.53001L12.3084 9.5183C12.0515 9.02571 11.3928 8.91356 10.9873 9.29735L4.68154 15.2656C4.67131 15.2753 4.66085 15.2847 4.65021 15.294C2.33834 17.3001 -1.05353 14.6685 0.315379 11.9306L5.50763 1.54613ZM8.76021 2.42154C8.45084 1.8028 7.56785 1.80279 7.25848 2.42154L2.0662 12.8061C1.65835 13.6218 2.65786 14.4052 3.35134 13.829C3.35301 13.8276 3.35466 13.8262 3.35624 13.8247L9.64171 7.87567C10.0377 7.50085 10.5056 7.26828 10.9909 7.16766C11.0217 7.16127 11.0478 7.14094 11.0615 7.11263C11.0752 7.08432 11.075 7.05124 11.061 7.0231L8.76021 2.42154Z" fill="black"/>
</svg>
