<svg width="68" height="68" viewBox="0 0 68 68" fill="none" xmlns="http://www.w3.org/2000/svg">
<path d="M67.7335 33.7813C67.7335 40.2157 65.8835 46.5145 62.4039 51.927C58.9243 57.3395 53.962 61.6374 48.1082 64.3085C42.2543 66.9797 35.756 67.9114 29.3874 66.9928C23.0189 66.0741 17.0488 63.3437 12.1886 59.127C7.32835 54.9103 3.78297 49.3852 1.97496 43.21C0.166946 37.0348 0.172536 30.4699 1.99107 24.2978C3.80959 18.1257 7.36437 12.6065 12.2318 8.39815C17.0992 4.18975 23.0739 1.46956 29.444 0.561728L31.0789 12.0332C26.9085 12.6275 22.997 14.4084 19.8104 17.1635C16.6238 19.9187 14.2966 23.5319 13.106 27.5727C11.9155 31.6134 11.9118 35.9113 13.0955 39.954C14.2792 43.9968 16.6002 47.614 19.7821 50.3746C22.964 53.1351 26.8725 54.9226 31.0418 55.5241C35.2112 56.1255 39.4655 55.5155 43.2978 53.7668C47.1302 52.018 50.379 49.2043 52.6569 45.6609C54.9349 42.1174 56.1461 37.9938 56.1461 33.7813L67.7335 33.7813Z" fill="#EC1B62"/>
<path d="M67.7335 33.7813C67.7335 40.2157 65.8835 46.5145 62.4039 51.927C58.9243 57.3395 53.962 61.6374 48.1082 64.3085C42.2543 66.9797 35.756 67.9114 29.3874 66.9928C23.0189 66.0741 17.0488 63.3437 12.1886 59.127C7.32835 54.9103 3.78297 49.3852 1.97496 43.21C0.166946 37.0348 0.172536 30.4699 1.99107 24.2978C3.80959 18.1257 7.36437 12.6065 12.2318 8.39815C17.0992 4.18975 23.0739 1.46956 29.444 0.561728L31.0789 12.0332C26.9085 12.6275 22.997 14.4084 19.8104 17.1635C16.6238 19.9187 14.2966 23.5319 13.106 27.5727C11.9155 31.6134 11.9118 35.9113 13.0955 39.954C14.2792 43.9968 16.6002 47.614 19.7821 50.3746C22.964 53.1351 26.8725 54.9226 31.0418 55.5241C35.2112 56.1255 39.4655 55.5155 43.2978 53.7668C47.1302 52.018 50.379 49.2043 52.6569 45.6609C54.9349 42.1174 56.1461 37.9938 56.1461 33.7813L67.7335 33.7813Z" fill="url(#paint0_linear_406_3860)"/>
<defs>
<linearGradient id="paint0_linear_406_3860" x1="15.919" y1="8.48388" x2="47.0122" y2="67.3365" gradientUnits="userSpaceOnUse">
<stop stop-color="#FBCFD8" stop-opacity="0"/>
<stop offset="1" stop-color="#FBCFD8"/>
</linearGradient>
</defs>
</svg>
