<svg width="49" height="49" viewBox="0 0 49 49" fill="none" xmlns="http://www.w3.org/2000/svg">
<path fill-rule="evenodd" clip-rule="evenodd" d="M27.7924 0.607422L21.7926 0.607422L21.7886 17.3556L9.94234 5.51291L5.6988 9.75316L17.5447 21.5954H0.788505L0.78709 27.592H17.5442L5.69233 39.4348L9.93386 43.675L21.7852 31.8329L21.7813 48.5804H27.7811L27.7851 31.8327L39.6311 43.6752L43.8746 39.4349L32.0282 27.592H48.7859L48.7873 21.5954H32.0306L43.8822 9.75303L39.6406 5.51278L27.7885 17.3557L27.7924 0.607422Z" fill="#CAA6EE"/>
<path fill-rule="evenodd" clip-rule="evenodd" d="M27.7924 0.607422L21.7926 0.607422L21.7886 17.3556L9.94234 5.51291L5.6988 9.75316L17.5447 21.5954H0.788505L0.78709 27.592H17.5442L5.69233 39.4348L9.93386 43.675L21.7852 31.8329L21.7813 48.5804H27.7811L27.7851 31.8327L39.6311 43.6752L43.8746 39.4349L32.0282 27.592H48.7859L48.7873 21.5954H32.0306L43.8822 9.75303L39.6406 5.51278L27.7885 17.3557L27.7924 0.607422Z" fill="url(#paint0_radial_406_3861)"/>
<defs>
<radialGradient id="paint0_radial_406_3861" cx="0" cy="0" r="1" gradientUnits="userSpaceOnUse" gradientTransform="translate(0.787798 24.5939) rotate(14.3748) scale(30.1928 58.031)">
<stop stop-color="#FF8A00"/>
<stop offset="1" stop-color="#FF8A00" stop-opacity="0"/>
</radialGradient>
</defs>
</svg>
