<svg width="57" height="57" viewBox="0 0 57 57" fill="none" xmlns="http://www.w3.org/2000/svg">
<path d="M31.377 46.7285C25.4002 48.4799 19.761 51.5264 16.586 56.7598C18.9479 51.5393 22.1831 47.6791 26.1964 44.8125L31.377 46.7285ZM20.7188 0.837891C20.9692 -0.0601629 22.1825 -0.299318 22.7833 0.430664C22.845 0.472521 32.0636 6.74088 39.1183 19.7432C37.7785 20.248 36.6177 21.2955 36.0274 22.8906L32.9708 31.1504L24.711 34.207C20.6757 35.7006 20.1308 40.8377 23.0743 43.3174C19.1473 47.4198 16.5765 52.5698 15.4874 56.5801C17.1777 46.8375 22.3092 43.7527 15.4874 38.2715C13.2954 37.2089 10.4399 37.4664 8.10751 38.2715C6.4593 38.5624 4.50609 35.759 2.95126 33.5264C2.21692 32.4719 1.57089 31.5443 1.08798 31.1309C-0.170866 30.2367 -0.182138 28.8401 0.277435 28.3145L3.69247 23.916C3.81843 23.772 3.9054 23.6002 3.94443 23.416L4.67978 19.9385C4.8787 18.9987 5.44511 18.1668 6.26279 17.6133L13.7882 12.5205C14.7955 8.69415 14.8945 6.54077 14.1925 2.70605C14.1886 2.04668 15.0543 1.75085 15.4874 2.26367L19.6339 6.96484C20.1842 5.27281 20.5177 3.4776 20.7188 0.837891ZM36.5499 43.501C36.5965 43.534 36.6415 43.5691 36.6817 43.6094C36.6415 43.5691 36.5966 43.5339 36.5499 43.501ZM49.4102 42.0381L45.7911 43.3779L45.6905 43.4209C45.7231 43.4046 45.7566 43.3897 45.7911 43.377L49.4102 42.0381ZM36.3194 43.377C36.3389 43.3842 36.3582 43.393 36.377 43.4014C36.3584 43.3931 36.3396 43.3851 36.3204 43.3779L33.1427 42.2012L36.3194 43.377ZM26.0899 39.3789C26.1036 39.4259 26.1241 39.471 26.1515 39.5127C26.1924 39.5753 26.2486 39.6295 26.3204 39.6699C26.3443 39.6834 26.3702 39.6959 26.3976 39.7061L26.7999 39.8545L26.3966 39.7061C26.2327 39.6453 26.1307 39.52 26.0899 39.3789ZM26.3204 38.7998C26.2965 38.8133 26.2745 38.8284 26.254 38.8447C26.2335 38.8611 26.2145 38.8786 26.1974 38.8975C26.2143 38.8788 26.2327 38.861 26.253 38.8447L26.3204 38.7998C26.328 38.7956 26.3359 38.792 26.3438 38.7881C26.3538 38.7831 26.3637 38.7779 26.3741 38.7734C26.3553 38.7814 26.3375 38.7902 26.3204 38.7998ZM36.6183 34.917C36.6087 34.9251 36.5988 34.9327 36.589 34.9404C36.5988 34.9327 36.6087 34.9251 36.6183 34.917ZM36.6876 34.8535C36.6816 34.8596 36.6752 34.8652 36.669 34.8711C36.6752 34.8652 36.6816 34.8596 36.6876 34.8535ZM40.6573 24.4434C40.6282 24.4819 40.6036 24.5261 40.5851 24.5762C40.6036 24.5262 40.6282 24.4819 40.6573 24.4434ZM40.8214 24.3057C40.7867 24.3236 40.7538 24.3456 40.7237 24.3721C40.7538 24.3456 40.7867 24.3236 40.8214 24.3057ZM22.3175 3.55957C22.0133 7.92653 21.617 10.2597 20.3204 14.1338C22.5432 14.1231 23.8611 14.5532 26.8839 16.2402C26.4472 11.1253 25.1592 8.38387 22.3175 3.55957Z" fill="white"/>
<path d="M40.5847 24.5765C40.7464 24.1394 41.3646 24.1394 41.5263 24.5765L45.198 34.4992C45.2997 34.774 45.5164 34.9907 45.7912 35.0924L55.7139 38.7641C56.151 38.9258 56.151 39.544 55.7139 39.7057L45.7912 43.3774C45.5164 43.4791 45.2997 43.6958 45.198 43.9706L41.5263 53.8933C41.3646 54.3303 40.7464 54.3303 40.5847 53.8933L36.913 43.9706C36.8113 43.6958 36.5946 43.4791 36.3198 43.3774L26.3971 39.7057C25.96 39.544 25.96 38.9258 26.3971 38.7641L36.3198 35.0924C36.5946 34.9907 36.8113 34.774 36.913 34.4992L40.5847 24.5765Z" fill="white"/>
<path d="M40.5847 24.5765C40.7464 24.1394 41.3646 24.1394 41.5263 24.5765L45.198 34.4992C45.2997 34.774 45.5164 34.9907 45.7912 35.0924L55.7139 38.7641C56.151 38.9258 56.151 39.544 55.7139 39.7057L45.7912 43.3774C45.5164 43.4791 45.2997 43.6958 45.198 43.9706L41.5263 53.8933C41.3646 54.3303 40.7464 54.3303 40.5847 53.8933L36.913 43.9706C36.8113 43.6958 36.5946 43.4791 36.3198 43.3774L26.3971 39.7057C25.96 39.544 25.96 38.9258 26.3971 38.7641L36.3198 35.0924C36.5946 34.9907 36.8113 34.774 36.913 34.4992L40.5847 24.5765Z" fill="url(#paint0_linear_4768_2630)"/>
<defs>
<linearGradient id="paint0_linear_4768_2630" x1="26.3408" y1="50.8145" x2="59.7078" y2="34.7883" gradientUnits="userSpaceOnUse">
<stop offset="0.390142" stop-color="#FF6740"/>
<stop offset="0.692469" stop-color="#63C4F7"/>
<stop offset="1" stop-color="#3DEAE7"/>
</linearGradient>
</defs>
</svg>
