<svg width="32" height="36" viewBox="0 0 32 36" fill="none" xmlns="http://www.w3.org/2000/svg">
<path d="M24.2642 -7.62939e-06L27.1048 0.000631846C29.8084 0.000628911 32.0002 2.25524 32.0002 5.03645L32.0002 10.875L27.1447 10.8879V5.03645C27.1447 5.02643 27.1425 5.02124 27.1425 5.02124C27.1413 5.01814 27.1384 5.01295 27.133 5.00742C27.1303 5.00468 27.1277 5.00257 27.1255 5.00097L27.1221 4.99886L27.1196 4.9976L27.116 4.99642C27.1138 4.99588 27.1103 4.9954 27.1048 4.9954L22.4255 5.03645L24.2642 -7.62939e-06Z" fill="black"/>
<path d="M10.6571 0.000629532L0.000213623 0.000628177L0.00021398 16.4594C0.000214504 23.488 4.28306 29.4876 10.3106 31.8472L11.2042 26.8105C7.44974 24.9665 4.85575 21.0246 4.85575 16.4594L4.85575 4.9954H10.0277L10.6571 0.000629532Z" fill="black"/>
<path d="M16.0002 32.9182C15.0315 32.9182 14.0829 32.8297 13.1617 32.66L15.7793 27.9213C15.8528 27.9227 15.9264 27.9235 16.0002 27.9235C22.1551 27.9235 27.1447 22.7908 27.1447 16.4594V13.0643L32.0002 13.0514V16.4594C32.0002 25.5494 24.8368 32.9182 16.0002 32.9182Z" fill="black"/>
<path d="M10.3963 36L22.098 13.7219H19.2546L24.2642 -7.62939e-06H13.7752L11.3431 18.0984H14.143L10.3963 36Z" fill="black"/>
</svg>
