<svg width="40" height="40" viewBox="0 0 40 40" fill="none" xmlns="http://www.w3.org/2000/svg">
<path d="M28.2642 3L31.1048 3.00064C33.8084 3.00064 36.0002 5.25525 36.0002 8.03646L36.0002 13.875L31.1447 13.888V8.03646C31.1447 8.02644 31.1425 8.02125 31.1425 8.02125C31.1413 8.01814 31.1384 8.01296 31.133 8.00743C31.1303 8.00469 31.1277 8.00258 31.1255 8.00098L31.1221 7.99887L31.1196 7.99761L31.116 7.99642C31.1138 7.99589 31.1103 7.9954 31.1048 7.9954L26.4255 8.03646L28.2642 3Z" fill="black"/>
<path d="M14.6571 3.00064L4.00021 3.00064L4.00021 19.4594C4.00021 26.488 8.28306 32.4876 14.3106 34.8472L15.2042 29.8105C11.4497 27.9665 8.85575 24.0246 8.85575 19.4594L8.85575 7.99541H14.0277L14.6571 3.00064Z" fill="black"/>
<path d="M20.0002 35.9182C19.0315 35.9182 18.0829 35.8297 17.1617 35.66L19.7793 30.9213C19.8528 30.9227 19.9264 30.9235 20.0002 30.9235C26.1551 30.9235 31.1447 25.7908 31.1447 19.4594V16.0643L36.0002 16.0514V19.4594C36.0002 28.5494 28.8368 35.9182 20.0002 35.9182Z" fill="black"/>
<path d="M26.4255 8.03646L28.2642 3H17.7752L15.3431 21.0984H18.143L14.3963 39L26.098 16.7219H23.2546L26.4255 8.03646Z" fill="url(#paint0_linear_2080_1834)"/>
<defs>
<linearGradient id="paint0_linear_2080_1834" x1="32.6572" y1="3" x2="6.95809" y2="36.3003" gradientUnits="userSpaceOnUse">
<stop stop-color="#12E5E5"/>
<stop offset="0.456705" stop-color="#C96ED1"/>
<stop offset="0.907104" stop-color="#FF351A"/>
</linearGradient>
</defs>
</svg>
