<svg width="33" height="37" viewBox="0 0 33 37" fill="none" xmlns="http://www.w3.org/2000/svg">
<path d="M25.2213 0.516991L28.0618 0.51763C30.7655 0.517627 32.9572 2.77224 32.9572 5.55345L32.9572 11.392L28.1017 11.4049V5.55345C28.1017 5.54343 28.0996 5.53824 28.0996 5.53824C28.0983 5.53513 28.0954 5.52995 28.09 5.52442C28.0874 5.52168 28.0848 5.51957 28.0825 5.51797L28.0791 5.51586L28.0766 5.5146L28.0731 5.51341C28.0708 5.51288 28.0673 5.5124 28.0618 5.51239L23.3825 5.55345L25.2213 0.516991Z" fill="white"/>
<path d="M11.6142 0.517628L0.957245 0.517626L0.957245 16.9764C0.957246 24.005 5.24009 30.0046 11.2676 32.3642L12.1612 27.3275C8.40677 25.4835 5.81278 21.5416 5.81278 16.9764L5.81278 5.5124H10.9847L11.6142 0.517628Z" fill="white"/>
<path d="M16.9572 33.4352C15.9885 33.4352 15.0399 33.3467 14.1187 33.177L16.7363 28.4383C16.8098 28.4397 16.8834 28.4405 16.9572 28.4405C23.1122 28.4405 28.1017 23.3078 28.1017 16.9764V13.5813L32.9572 13.5684V16.9764C32.9572 26.0664 25.7938 33.4352 16.9572 33.4352Z" fill="white"/>
<path d="M11.3534 36.517L23.0551 14.2389H20.2116L25.2213 0.516991H14.7322L12.3001 18.6154H15.1001L11.3534 36.517Z" fill="white"/>
</svg>
