<svg width="501" height="432" viewBox="0 0 501 432" fill="none" xmlns="http://www.w3.org/2000/svg">
<circle cx="99.2004" cy="332.402" r="58.2586" transform="rotate(-120 99.2004 332.402)" stroke="black" stroke-opacity="0.06" stroke-width="0.903234"/>
<circle cx="99.2004" cy="332.402" r="58.2586" transform="rotate(-120 99.2004 332.402)" stroke="url(#paint0_linear_406_14005)" stroke-width="0.903234"/>
<circle cx="99.1985" cy="332.403" r="71.8071" transform="rotate(-120 99.1985 332.403)" stroke="black" stroke-opacity="0.06" stroke-width="0.903234"/>
<circle cx="99.1985" cy="332.403" r="71.8071" transform="rotate(-120 99.1985 332.403)" stroke="url(#paint1_linear_406_14005)" stroke-width="0.903234"/>
<circle cx="99.2007" cy="332.402" r="45.1617" fill="#F4F4F5"/>
<circle cx="99.2007" cy="332.402" r="44.7101" stroke="black" stroke-opacity="0.06" stroke-width="0.903234"/>
<foreignObject x="35.9743" y="269.176" width="126.454" height="126.453"><div xmlns="http://www.w3.org/1999/xhtml" style="backdrop-filter:blur(18.97px);clip-path:url(#bgblur_0_406_14005_clip_path);height:100%;width:100%"></div></foreignObject><rect data-figma-bg-blur-radius="37.9358" x="73.9102" y="307.112" width="50.5811" height="50.5811" rx="25.2905" fill="#0179FD"/>
<path d="M104.31 334.128C104.403 333.355 104.474 332.582 104.474 331.786C104.474 330.99 104.403 330.217 104.31 329.444H108.267C108.454 330.194 108.572 330.978 108.572 331.786C108.572 332.594 108.454 333.378 108.267 334.128M102.237 340.638C102.94 339.338 103.478 337.933 103.853 336.469H107.307C106.173 338.423 104.373 339.902 102.237 340.638ZM101.944 334.128H96.4649C96.3478 333.355 96.2775 332.582 96.2775 331.786C96.2775 330.99 96.3478 330.205 96.4649 329.444H101.944C102.05 330.205 102.132 330.99 102.132 331.786C102.132 332.582 102.05 333.355 101.944 334.128ZM99.2047 341.106C98.2329 339.701 97.4484 338.144 96.9683 336.469H101.441C100.961 338.144 100.176 339.701 99.2047 341.106ZM94.5212 327.103H91.1023C92.225 325.144 94.0234 323.662 96.1604 322.934C95.4579 324.234 94.931 325.639 94.5212 327.103ZM91.1023 336.469H94.5212C94.931 337.933 95.4579 339.338 96.1604 340.638C94.0279 339.902 92.232 338.422 91.1023 336.469ZM90.1422 334.128C89.9549 333.378 89.8378 332.594 89.8378 331.786C89.8378 330.978 89.9549 330.194 90.1422 329.444H94.0997C94.0061 330.217 93.9358 330.99 93.9358 331.786C93.9358 332.582 94.0061 333.355 94.0997 334.128M99.2047 322.454C100.176 323.859 100.961 325.428 101.441 327.103H96.9683C97.4484 325.428 98.2329 323.859 99.2047 322.454ZM107.307 327.103H103.853C103.487 325.652 102.944 324.253 102.237 322.934C104.392 323.672 106.183 325.159 107.307 327.103ZM99.2047 320.077C92.7298 320.077 87.4961 325.346 87.4961 331.786C87.4961 338.249 92.7415 343.495 99.2047 343.495C105.668 343.495 110.913 338.249 110.913 331.786C110.913 325.323 105.668 320.077 99.2047 320.077Z" fill="white"/>
<circle cx="254.558" cy="240.273" r="58.2586" stroke="#7236D1" stroke-width="0.903234"/>
<circle cx="254.559" cy="240.273" r="71.8071" stroke="#7236D1" stroke-opacity="0.35" stroke-width="0.903234"/>
<circle cx="254.56" cy="240.273" r="45.1617" fill="#F4F4F5"/>
<circle cx="254.56" cy="240.273" r="44.7101" stroke="black" stroke-opacity="0.06" stroke-width="0.903234"/>
<foreignObject x="191.334" y="177.046" width="126.454" height="126.453"><div xmlns="http://www.w3.org/1999/xhtml" style="backdrop-filter:blur(18.97px);clip-path:url(#bgblur_1_406_14005_clip_path);height:100%;width:100%"></div></foreignObject><rect data-figma-bg-blur-radius="37.9358" x="229.27" y="214.982" width="50.5811" height="50.5811" rx="25.2905" fill="#7236D1"/>
<path d="M260.533 228.892L262.585 228.892C264.539 228.892 266.123 230.521 266.123 232.531L266.123 236.75L262.614 236.759V232.531C262.614 232.524 262.613 232.52 262.613 232.52C262.612 232.518 262.61 232.514 262.606 232.51C262.604 232.508 262.602 232.507 262.6 232.505L262.598 232.504L262.596 232.503L262.594 232.502C262.592 232.502 262.589 232.501 262.585 232.501L259.204 232.531L260.533 228.892Z" fill="white"/>
<path d="M250.701 228.892L243 228.892L243 240.785C243 245.864 246.095 250.199 250.45 251.904L251.096 248.265C248.383 246.932 246.509 244.084 246.509 240.785L246.509 232.501H250.246L250.701 228.892Z" fill="white"/>
<path d="M254.561 252.678C253.861 252.678 253.176 252.614 252.51 252.492L254.402 249.067C254.455 249.068 254.508 249.069 254.561 249.069C259.009 249.069 262.614 245.36 262.614 240.785V238.332L266.123 238.323V240.785C266.123 247.353 260.947 252.678 254.561 252.678Z" fill="white"/>
<path d="M250.512 254.905L258.968 238.807H256.913L260.533 228.892H252.954L251.196 241.969H253.219L250.512 254.905Z" fill="white"/>
<circle cx="257.265" cy="73.1743" r="58.2586" stroke="black" stroke-opacity="0.06" stroke-width="0.903234"/>
<circle cx="257.265" cy="73.1743" r="58.2586" stroke="url(#paint2_linear_406_14005)" stroke-width="0.903234"/>
<circle cx="257.267" cy="73.1745" r="71.8071" stroke="black" stroke-opacity="0.06" stroke-width="0.903234"/>
<circle cx="257.267" cy="73.1745" r="71.8071" stroke="url(#paint3_linear_406_14005)" stroke-width="0.903234"/>
<circle cx="257.267" cy="73.1744" r="45.1617" fill="#F4F4F5"/>
<circle cx="257.267" cy="73.1744" r="44.7101" stroke="black" stroke-opacity="0.06" stroke-width="0.903234"/>
<foreignObject x="194.041" y="9.94798" width="126.454" height="126.453"><div xmlns="http://www.w3.org/1999/xhtml" style="backdrop-filter:blur(18.97px);clip-path:url(#bgblur_2_406_14005_clip_path);height:100%;width:100%"></div></foreignObject><rect data-figma-bg-blur-radius="37.9358" x="231.977" y="47.8838" width="50.5811" height="50.5811" rx="25.2905" fill="#42D542"/>
<path d="M269.048 80.1986H245.746C246.334 74.2819 251.326 69.6609 257.397 69.6609C263.468 69.6609 268.46 74.2819 269.048 80.1986Z" fill="white" stroke="white" stroke-width="2.34172" stroke-linejoin="round"/>
<path d="M251.545 70.8321L249.203 66.7341" stroke="white" stroke-width="2.34172" stroke-linecap="round" stroke-linejoin="round"/>
<path d="M262.68 70.8321L265.021 66.7341" stroke="white" stroke-width="2.34172" stroke-linecap="round" stroke-linejoin="round"/>
<path d="M252.132 77.2719C252.778 77.2719 253.303 76.7477 253.303 76.101C253.303 75.4544 252.778 74.9302 252.132 74.9302C251.485 74.9302 250.961 75.4544 250.961 76.101C250.961 76.7477 251.485 77.2719 252.132 77.2719Z" fill="white"/>
<path d="M262.671 77.2719C263.318 77.2719 263.842 76.7477 263.842 76.101C263.842 75.4544 263.318 74.9302 262.671 74.9302C262.024 74.9302 261.5 75.4544 261.5 76.101C261.5 76.7477 262.024 77.2719 262.671 77.2719Z" fill="white"/>
<circle cx="401.785" cy="321.564" r="58.2586" transform="rotate(120 401.785 321.564)" stroke="black" stroke-opacity="0.06" stroke-width="0.903234"/>
<circle cx="401.785" cy="321.564" r="58.2586" transform="rotate(120 401.785 321.564)" stroke="url(#paint4_linear_406_14005)" stroke-width="0.903234"/>
<circle cx="401.785" cy="321.564" r="71.8071" transform="rotate(120 401.785 321.564)" stroke="black" stroke-opacity="0.06" stroke-width="0.903234"/>
<circle cx="401.785" cy="321.564" r="71.8071" transform="rotate(120 401.785 321.564)" stroke="url(#paint5_linear_406_14005)" stroke-width="0.903234"/>
<circle cx="401.783" cy="321.564" r="45.1617" fill="#F4F4F5"/>
<circle cx="401.783" cy="321.564" r="44.7101" stroke="black" stroke-opacity="0.06" stroke-width="0.903234"/>
<foreignObject x="338.556" y="258.337" width="126.454" height="126.453"><div xmlns="http://www.w3.org/1999/xhtml" style="backdrop-filter:blur(18.97px);clip-path:url(#bgblur_3_406_14005_clip_path);height:100%;width:100%"></div></foreignObject><rect data-figma-bg-blur-radius="37.9358" x="376.492" y="296.273" width="50.5811" height="50.5811" rx="25.2905" fill="black"/>
<path d="M408.463 321.872C408.432 317.314 410.993 317.196 411.108 317.123C409.667 315.017 407.426 314.686 406.629 314.655C404.722 314.461 402.908 315.755 401.939 315.755C400.973 315.755 399.479 314.652 397.899 314.68C395.821 314.711 393.903 315.885 392.83 317.746C390.67 321.495 392.277 327.047 394.383 330.085C395.411 331.573 396.638 333.244 398.25 333.185C399.8 333.124 400.386 332.18 402.262 332.18C404.138 332.18 404.663 333.185 406.306 333.152C407.974 333.121 409.033 331.635 410.052 330.141C411.234 328.414 411.72 326.828 411.748 326.744C411.712 326.727 408.493 324.91 408.46 321.872H408.463ZM401.776 314.812C401.776 311.431 404.517 308.688 407.901 308.688C407.901 312.071 405.157 314.812 401.776 314.812Z" fill="white"/>
<defs>
<clipPath id="bgblur_0_406_14005_clip_path" transform="translate(-35.9743 -269.176)"><rect x="73.9102" y="307.112" width="50.5811" height="50.5811" rx="25.2905"/>
</clipPath><clipPath id="bgblur_1_406_14005_clip_path" transform="translate(-191.334 -177.046)"><rect x="229.27" y="214.982" width="50.5811" height="50.5811" rx="25.2905"/>
</clipPath><clipPath id="bgblur_2_406_14005_clip_path" transform="translate(-194.041 -9.94798)"><rect x="231.977" y="47.8838" width="50.5811" height="50.5811" rx="25.2905"/>
</clipPath><clipPath id="bgblur_3_406_14005_clip_path" transform="translate(-338.556 -258.337)"><rect x="376.492" y="296.273" width="50.5811" height="50.5811" rx="25.2905"/>
</clipPath><linearGradient id="paint0_linear_406_14005" x1="99.5997" y1="327.61" x2="99.2004" y2="391.112" gradientUnits="userSpaceOnUse">
<stop offset="0.612203" stop-color="#0179FD" stop-opacity="0"/>
<stop offset="1" stop-color="#0179FD"/>
</linearGradient>
<linearGradient id="paint1_linear_406_14005" x1="99.6901" y1="326.504" x2="99.1985" y2="404.662" gradientUnits="userSpaceOnUse">
<stop offset="0.612203" stop-color="#0179FD" stop-opacity="0"/>
<stop offset="1" stop-color="#0179FD"/>
</linearGradient>
<linearGradient id="paint2_linear_406_14005" x1="257.664" y1="68.3816" x2="257.265" y2="131.884" gradientUnits="userSpaceOnUse">
<stop offset="0.612203" stop-color="#42D542" stop-opacity="0"/>
<stop offset="1" stop-color="#42D542"/>
</linearGradient>
<linearGradient id="paint3_linear_406_14005" x1="257.758" y1="67.2758" x2="257.267" y2="145.433" gradientUnits="userSpaceOnUse">
<stop offset="0.612203" stop-color="#42D542" stop-opacity="0"/>
<stop offset="1" stop-color="#42D542"/>
</linearGradient>
<linearGradient id="paint4_linear_406_14005" x1="402.184" y1="316.771" x2="401.785" y2="380.274" gradientUnits="userSpaceOnUse">
<stop offset="0.612203" stop-opacity="0"/>
<stop offset="1"/>
</linearGradient>
<linearGradient id="paint5_linear_406_14005" x1="402.277" y1="315.665" x2="401.785" y2="393.822" gradientUnits="userSpaceOnUse">
<stop offset="0.612203" stop-opacity="0"/>
<stop offset="1"/>
</linearGradient>
</defs>
</svg>
