<svg width="517" height="334" viewBox="0 0 517 334" fill="none" xmlns="http://www.w3.org/2000/svg">
<foreignObject x="249" y="274" width="196" height="64"><div xmlns="http://www.w3.org/1999/xhtml" style="backdrop-filter:blur(2px);clip-path:url(#bgblur_0_513_22119_clip_path);height:100%;width:100%"></div></foreignObject><g data-figma-bg-blur-radius="4">
<rect x="253.452" y="278.452" width="187.097" height="55.0968" rx="27.5484" fill="black" fill-opacity="0.08"/>
<rect x="253.452" y="278.452" width="187.097" height="55.0968" rx="27.5484" stroke="white" stroke-opacity="0.08" stroke-width="0.903234"/>
<rect x="253.452" y="278.452" width="187.097" height="55.0968" rx="27.5484" stroke="url(#paint0_linear_513_22119)" stroke-width="0.903234"/>
</g>
<rect x="261.5" y="286.5" width="171" height="39" rx="19.5" fill="#18181B"/>
<rect x="261.5" y="286.5" width="171" height="39" rx="19.5" stroke="#27272A"/>
<path d="M276.409 300.364H278.091L282.045 310.023H282.182L286.136 300.364H287.818V312H286.5V303.159H286.386L282.75 312H281.477L277.841 303.159H277.727V312H276.409V300.364ZM293.03 312.205C292.477 312.205 291.975 312.1 291.524 311.892C291.073 311.68 290.715 311.375 290.45 310.977C290.185 310.576 290.053 310.091 290.053 309.523C290.053 309.023 290.151 308.617 290.348 308.307C290.545 307.992 290.808 307.746 291.138 307.568C291.467 307.39 291.831 307.258 292.229 307.17C292.63 307.08 293.034 307.008 293.439 306.955C293.969 306.886 294.399 306.835 294.729 306.801C295.062 306.763 295.304 306.701 295.456 306.614C295.611 306.527 295.689 306.375 295.689 306.159V306.114C295.689 305.553 295.536 305.117 295.229 304.807C294.926 304.496 294.465 304.341 293.848 304.341C293.208 304.341 292.706 304.481 292.342 304.761C291.979 305.042 291.723 305.341 291.575 305.659L290.303 305.205C290.53 304.674 290.833 304.261 291.212 303.966C291.594 303.667 292.011 303.458 292.462 303.341C292.916 303.22 293.363 303.159 293.803 303.159C294.083 303.159 294.405 303.193 294.768 303.261C295.136 303.326 295.49 303.46 295.831 303.665C296.176 303.869 296.462 304.178 296.689 304.591C296.916 305.004 297.03 305.557 297.03 306.25V312H295.689V310.818H295.621C295.53 311.008 295.378 311.21 295.166 311.426C294.954 311.642 294.672 311.826 294.32 311.977C293.967 312.129 293.537 312.205 293.03 312.205ZM293.234 311C293.765 311 294.212 310.896 294.575 310.688C294.943 310.479 295.219 310.21 295.405 309.881C295.594 309.551 295.689 309.205 295.689 308.841V307.614C295.632 307.682 295.507 307.744 295.314 307.801C295.125 307.854 294.905 307.902 294.655 307.943C294.409 307.981 294.168 308.015 293.933 308.045C293.702 308.072 293.515 308.095 293.371 308.114C293.022 308.159 292.696 308.233 292.393 308.335C292.094 308.434 291.852 308.583 291.666 308.784C291.484 308.981 291.393 309.25 291.393 309.591C291.393 310.057 291.566 310.409 291.911 310.648C292.259 310.883 292.7 311 293.234 311ZM299.477 312V303.273H300.818V312H299.477ZM300.159 301.818C299.898 301.818 299.672 301.729 299.483 301.551C299.297 301.373 299.205 301.159 299.205 300.909C299.205 300.659 299.297 300.445 299.483 300.267C299.672 300.089 299.898 300 300.159 300C300.42 300 300.644 300.089 300.83 300.267C301.019 300.445 301.114 300.659 301.114 300.909C301.114 301.159 301.019 301.373 300.83 301.551C300.644 301.729 300.42 301.818 300.159 301.818ZM304.615 306.75V312H303.274V303.273H304.57V304.636H304.683C304.888 304.193 305.198 303.837 305.615 303.568C306.032 303.295 306.57 303.159 307.229 303.159C307.82 303.159 308.337 303.28 308.78 303.523C309.223 303.761 309.568 304.125 309.814 304.614C310.06 305.098 310.183 305.712 310.183 306.455V312H308.842V306.545C308.842 305.86 308.664 305.326 308.308 304.943C307.952 304.557 307.464 304.364 306.842 304.364C306.414 304.364 306.032 304.456 305.695 304.642C305.361 304.828 305.098 305.098 304.905 305.455C304.712 305.811 304.615 306.242 304.615 306.75ZM316.679 301.614V300.364H325.406V301.614H321.747V312H320.338V301.614H316.679ZM328.74 306.75V312H327.399V300.364H328.74V304.636H328.854C329.058 304.186 329.365 303.828 329.774 303.562C330.187 303.294 330.736 303.159 331.422 303.159C332.017 303.159 332.537 303.278 332.984 303.517C333.431 303.752 333.778 304.114 334.024 304.602C334.274 305.087 334.399 305.705 334.399 306.455V312H333.058V306.545C333.058 305.852 332.878 305.316 332.518 304.938C332.162 304.555 331.668 304.364 331.036 304.364C330.596 304.364 330.202 304.456 329.854 304.642C329.509 304.828 329.236 305.098 329.036 305.455C328.839 305.811 328.74 306.242 328.74 306.75ZM336.852 312V303.273H338.148V304.591H338.239C338.398 304.159 338.686 303.809 339.102 303.54C339.519 303.271 339.989 303.136 340.511 303.136C340.61 303.136 340.733 303.138 340.881 303.142C341.028 303.146 341.14 303.152 341.216 303.159V304.523C341.17 304.511 341.066 304.494 340.903 304.472C340.744 304.445 340.576 304.432 340.398 304.432C339.973 304.432 339.595 304.521 339.261 304.699C338.932 304.873 338.67 305.116 338.477 305.426C338.288 305.733 338.193 306.083 338.193 306.477V312H336.852ZM346.199 312.182C345.358 312.182 344.633 311.996 344.023 311.625C343.417 311.25 342.949 310.727 342.619 310.057C342.294 309.383 342.131 308.598 342.131 307.705C342.131 306.811 342.294 306.023 342.619 305.341C342.949 304.655 343.407 304.121 343.994 303.739C344.585 303.352 345.275 303.159 346.062 303.159C346.517 303.159 346.966 303.235 347.409 303.386C347.852 303.538 348.256 303.784 348.619 304.125C348.983 304.462 349.273 304.909 349.489 305.466C349.705 306.023 349.812 306.708 349.812 307.523V308.091H343.085V306.932H348.449C348.449 306.439 348.35 306 348.153 305.614C347.96 305.227 347.684 304.922 347.324 304.699C346.968 304.475 346.547 304.364 346.062 304.364C345.528 304.364 345.066 304.496 344.676 304.761C344.29 305.023 343.992 305.364 343.784 305.784C343.576 306.205 343.472 306.655 343.472 307.136V307.909C343.472 308.568 343.585 309.127 343.812 309.585C344.044 310.04 344.364 310.386 344.773 310.625C345.182 310.86 345.657 310.977 346.199 310.977C346.551 310.977 346.869 310.928 347.153 310.83C347.441 310.727 347.689 310.576 347.898 310.375C348.106 310.17 348.267 309.917 348.381 309.614L349.676 309.977C349.54 310.417 349.311 310.803 348.989 311.136C348.667 311.466 348.269 311.723 347.795 311.909C347.322 312.091 346.79 312.182 346.199 312.182ZM354.42 312.205C353.867 312.205 353.366 312.1 352.915 311.892C352.464 311.68 352.106 311.375 351.841 310.977C351.576 310.576 351.443 310.091 351.443 309.523C351.443 309.023 351.542 308.617 351.739 308.307C351.936 307.992 352.199 307.746 352.528 307.568C352.858 307.39 353.222 307.258 353.619 307.17C354.021 307.08 354.424 307.008 354.83 306.955C355.36 306.886 355.79 306.835 356.119 306.801C356.453 306.763 356.695 306.701 356.847 306.614C357.002 306.527 357.08 306.375 357.08 306.159V306.114C357.08 305.553 356.926 305.117 356.619 304.807C356.316 304.496 355.856 304.341 355.239 304.341C354.598 304.341 354.097 304.481 353.733 304.761C353.369 305.042 353.114 305.341 352.966 305.659L351.693 305.205C351.92 304.674 352.223 304.261 352.602 303.966C352.985 303.667 353.402 303.458 353.852 303.341C354.307 303.22 354.754 303.159 355.193 303.159C355.473 303.159 355.795 303.193 356.159 303.261C356.527 303.326 356.881 303.46 357.222 303.665C357.566 303.869 357.852 304.178 358.08 304.591C358.307 305.004 358.42 305.557 358.42 306.25V312H357.08V310.818H357.011C356.92 311.008 356.769 311.21 356.557 311.426C356.345 311.642 356.063 311.826 355.71 311.977C355.358 312.129 354.928 312.205 354.42 312.205ZM354.625 311C355.155 311 355.602 310.896 355.966 310.688C356.333 310.479 356.61 310.21 356.795 309.881C356.985 309.551 357.08 309.205 357.08 308.841V307.614C357.023 307.682 356.898 307.744 356.705 307.801C356.515 307.854 356.295 307.902 356.045 307.943C355.799 307.981 355.559 308.015 355.324 308.045C355.093 308.072 354.905 308.095 354.761 308.114C354.413 308.159 354.087 308.233 353.784 308.335C353.485 308.434 353.242 308.583 353.057 308.784C352.875 308.981 352.784 309.25 352.784 309.591C352.784 310.057 352.956 310.409 353.301 310.648C353.65 310.883 354.091 311 354.625 311ZM364.163 312.182C363.436 312.182 362.794 311.998 362.237 311.631C361.68 311.259 361.245 310.737 360.93 310.062C360.616 309.384 360.459 308.583 360.459 307.659C360.459 306.742 360.616 305.947 360.93 305.273C361.245 304.598 361.682 304.078 362.243 303.71C362.804 303.343 363.451 303.159 364.186 303.159C364.754 303.159 365.203 303.254 365.533 303.443C365.866 303.629 366.12 303.841 366.294 304.08C366.472 304.314 366.61 304.508 366.709 304.659H366.822V300.364H368.163V312H366.868V310.659H366.709C366.61 310.818 366.47 311.019 366.288 311.261C366.107 311.5 365.847 311.714 365.51 311.903C365.173 312.089 364.724 312.182 364.163 312.182ZM364.345 310.977C364.883 310.977 365.338 310.837 365.709 310.557C366.08 310.273 366.362 309.881 366.555 309.381C366.749 308.877 366.845 308.295 366.845 307.636C366.845 306.985 366.75 306.415 366.561 305.926C366.372 305.434 366.091 305.051 365.72 304.778C365.349 304.502 364.891 304.364 364.345 304.364C363.777 304.364 363.304 304.509 362.925 304.801C362.55 305.089 362.268 305.481 362.078 305.977C361.893 306.47 361.8 307.023 361.8 307.636C361.8 308.258 361.894 308.822 362.084 309.33C362.277 309.833 362.561 310.235 362.936 310.534C363.315 310.83 363.785 310.977 364.345 310.977ZM381.851 303.273C381.783 302.697 381.506 302.25 381.021 301.932C380.536 301.614 379.942 301.455 379.237 301.455C378.722 301.455 378.271 301.538 377.885 301.705C377.502 301.871 377.203 302.1 376.987 302.392C376.775 302.684 376.669 303.015 376.669 303.386C376.669 303.697 376.743 303.964 376.891 304.188C377.042 304.407 377.235 304.591 377.47 304.739C377.705 304.883 377.951 305.002 378.209 305.097C378.466 305.187 378.703 305.261 378.919 305.318L380.101 305.636C380.404 305.716 380.741 305.826 381.112 305.966C381.487 306.106 381.845 306.297 382.186 306.54C382.531 306.778 382.815 307.085 383.038 307.46C383.262 307.835 383.374 308.295 383.374 308.841C383.374 309.47 383.209 310.038 382.879 310.545C382.554 311.053 382.076 311.456 381.447 311.756C380.822 312.055 380.063 312.205 379.169 312.205C378.336 312.205 377.614 312.07 377.004 311.801C376.398 311.532 375.921 311.157 375.572 310.676C375.228 310.195 375.033 309.636 374.987 309H376.442C376.48 309.439 376.627 309.803 376.885 310.091C377.146 310.375 377.476 310.587 377.874 310.727C378.275 310.864 378.707 310.932 379.169 310.932C379.707 310.932 380.19 310.845 380.618 310.67C381.046 310.492 381.385 310.246 381.635 309.932C381.885 309.614 382.01 309.242 382.01 308.818C382.01 308.432 381.902 308.117 381.686 307.875C381.47 307.633 381.186 307.436 380.834 307.284C380.482 307.133 380.101 307 379.692 306.886L378.26 306.477C377.351 306.216 376.631 305.843 376.101 305.358C375.571 304.873 375.305 304.239 375.305 303.455C375.305 302.803 375.482 302.235 375.834 301.75C376.19 301.261 376.667 300.883 377.266 300.614C377.868 300.341 378.54 300.205 379.283 300.205C380.033 300.205 380.699 300.339 381.283 300.608C381.866 300.873 382.328 301.237 382.669 301.699C383.014 302.161 383.196 302.686 383.214 303.273H381.851ZM389.054 312.182C388.236 312.182 387.531 311.989 386.94 311.602C386.349 311.216 385.895 310.684 385.577 310.006C385.259 309.328 385.099 308.553 385.099 307.682C385.099 306.795 385.262 306.013 385.588 305.335C385.918 304.653 386.376 304.121 386.963 303.739C387.554 303.352 388.243 303.159 389.031 303.159C389.645 303.159 390.198 303.273 390.69 303.5C391.183 303.727 391.586 304.045 391.901 304.455C392.215 304.864 392.41 305.341 392.486 305.886H391.145C391.043 305.489 390.815 305.136 390.463 304.83C390.115 304.519 389.645 304.364 389.054 304.364C388.531 304.364 388.073 304.5 387.679 304.773C387.289 305.042 386.984 305.422 386.764 305.915C386.548 306.403 386.44 306.977 386.44 307.636C386.44 308.311 386.546 308.898 386.759 309.398C386.974 309.898 387.277 310.286 387.668 310.562C388.062 310.839 388.524 310.977 389.054 310.977C389.402 310.977 389.719 310.917 390.003 310.795C390.287 310.674 390.527 310.5 390.724 310.273C390.921 310.045 391.062 309.773 391.145 309.455H392.486C392.41 309.97 392.223 310.434 391.923 310.847C391.628 311.256 391.236 311.581 390.747 311.824C390.262 312.062 389.698 312.182 389.054 312.182ZM394.446 312V303.273H395.741V304.591H395.832C395.991 304.159 396.279 303.809 396.696 303.54C397.113 303.271 397.582 303.136 398.105 303.136C398.204 303.136 398.327 303.138 398.474 303.142C398.622 303.146 398.734 303.152 398.81 303.159V304.523C398.764 304.511 398.66 304.494 398.497 304.472C398.338 304.445 398.17 304.432 397.991 304.432C397.567 304.432 397.188 304.521 396.855 304.699C396.526 304.873 396.264 305.116 396.071 305.426C395.882 305.733 395.787 306.083 395.787 306.477V312H394.446ZM400.399 312V303.273H401.74V312H400.399ZM401.081 301.818C400.82 301.818 400.594 301.729 400.405 301.551C400.219 301.373 400.126 301.159 400.126 300.909C400.126 300.659 400.219 300.445 400.405 300.267C400.594 300.089 400.82 300 401.081 300C401.342 300 401.566 300.089 401.751 300.267C401.941 300.445 402.036 300.659 402.036 300.909C402.036 301.159 401.941 301.373 401.751 301.551C401.566 301.729 401.342 301.818 401.081 301.818ZM404.196 315.273V303.273H405.491V304.659H405.651C405.749 304.508 405.885 304.314 406.06 304.08C406.238 303.841 406.491 303.629 406.821 303.443C407.154 303.254 407.605 303.159 408.173 303.159C408.908 303.159 409.556 303.343 410.116 303.71C410.677 304.078 411.115 304.598 411.429 305.273C411.743 305.947 411.901 306.742 411.901 307.659C411.901 308.583 411.743 309.384 411.429 310.062C411.115 310.737 410.679 311.259 410.122 311.631C409.565 311.998 408.923 312.182 408.196 312.182C407.635 312.182 407.187 312.089 406.849 311.903C406.512 311.714 406.253 311.5 406.071 311.261C405.889 311.019 405.749 310.818 405.651 310.659H405.537V315.273H404.196ZM405.514 307.636C405.514 308.295 405.611 308.877 405.804 309.381C405.997 309.881 406.279 310.273 406.651 310.557C407.022 310.837 407.476 310.977 408.014 310.977C408.575 310.977 409.043 310.83 409.418 310.534C409.796 310.235 410.08 309.833 410.27 309.33C410.463 308.822 410.56 308.258 410.56 307.636C410.56 307.023 410.465 306.47 410.276 305.977C410.09 305.481 409.808 305.089 409.429 304.801C409.054 304.509 408.582 304.364 408.014 304.364C407.469 304.364 407.01 304.502 406.639 304.778C406.268 305.051 405.988 305.434 405.798 305.926C405.609 306.415 405.514 306.985 405.514 307.636ZM417.741 303.273V304.409H413.219V303.273H417.741ZM414.537 301.182H415.878V309.5C415.878 309.879 415.933 310.163 416.043 310.352C416.156 310.538 416.3 310.663 416.474 310.727C416.652 310.788 416.84 310.818 417.037 310.818C417.185 310.818 417.306 310.811 417.401 310.795C417.495 310.777 417.571 310.761 417.628 310.75L417.901 311.955C417.81 311.989 417.683 312.023 417.52 312.057C417.357 312.095 417.151 312.114 416.901 312.114C416.522 312.114 416.151 312.032 415.787 311.869C415.427 311.706 415.128 311.458 414.889 311.125C414.654 310.792 414.537 310.371 414.537 309.864V301.182Z" fill="white" fill-opacity="0.85"/>
<foreignObject x="50" y="-4" width="215" height="63"><div xmlns="http://www.w3.org/1999/xhtml" style="backdrop-filter:blur(2px);clip-path:url(#bgblur_1_513_22119_clip_path);height:100%;width:100%"></div></foreignObject><g data-figma-bg-blur-radius="4">
<rect x="54.4516" y="0.451617" width="206.097" height="54.0968" rx="27.0484" fill="black" fill-opacity="0.08"/>
<rect x="54.4516" y="0.451617" width="206.097" height="54.0968" rx="27.0484" stroke="white" stroke-opacity="0.08" stroke-width="0.903234"/>
<rect x="54.4516" y="0.451617" width="206.097" height="54.0968" rx="27.0484" stroke="url(#paint1_linear_513_22119)" stroke-width="0.903234"/>
</g>
<rect x="62.465" y="8.46502" width="190.07" height="38.07" rx="19.035" fill="#18181B"/>
<rect x="62.465" y="8.46502" width="190.07" height="38.07" rx="19.035" stroke="#27272A" stroke-width="0.930032"/>
<path d="M77.4091 33V21.3636H78.8182V31.75H84.2273V33H77.4091ZM85.9972 36.2727C85.7699 36.2727 85.5672 36.2538 85.3892 36.2159C85.2112 36.1818 85.0881 36.1477 85.0199 36.1136L85.3608 34.9318C85.6866 35.0152 85.9744 35.0455 86.2244 35.0227C86.4744 35 86.696 34.8883 86.8892 34.6875C87.0862 34.4905 87.2661 34.1705 87.429 33.7273L87.679 33.0455L84.4517 24.2727H85.9062L88.3153 31.2273H88.4062L90.8153 24.2727H92.2699L88.5653 34.2727C88.3987 34.7235 88.1922 35.0966 87.946 35.392C87.6998 35.6913 87.4138 35.9129 87.0881 36.0568C86.7661 36.2008 86.4025 36.2727 85.9972 36.2727ZM95.3807 27.75V33H94.0398V24.2727H95.3352V25.6364H95.4489C95.6534 25.1932 95.964 24.8371 96.3807 24.5682C96.7973 24.2955 97.3352 24.1591 97.9943 24.1591C98.5852 24.1591 99.1023 24.2803 99.5455 24.5227C99.9886 24.7614 100.333 25.125 100.58 25.6136C100.826 26.0985 100.949 26.7121 100.949 27.4545V33H99.608V27.5455C99.608 26.8598 99.4299 26.3258 99.0739 25.9432C98.7178 25.5568 98.2292 25.3636 97.608 25.3636C97.1799 25.3636 96.7973 25.4564 96.4602 25.642C96.1269 25.8277 95.8636 26.0985 95.6705 26.4545C95.4773 26.8106 95.3807 27.2424 95.3807 27.75ZM104.399 24.2727L106.49 27.8409L108.581 24.2727H110.126L107.308 28.6364L110.126 33H108.581L106.49 29.6136L104.399 33H102.854L105.626 28.6364L102.854 24.2727H104.399ZM124.676 25C124.551 24.6174 124.386 24.2746 124.182 23.9716C123.981 23.6648 123.741 23.4034 123.46 23.1875C123.184 22.9716 122.869 22.8068 122.517 22.6932C122.165 22.5795 121.778 22.5227 121.358 22.5227C120.669 22.5227 120.042 22.7008 119.477 23.0568C118.913 23.4129 118.464 23.9375 118.131 24.6307C117.797 25.3239 117.631 26.1742 117.631 27.1818C117.631 28.1894 117.799 29.0398 118.136 29.733C118.473 30.4261 118.93 30.9508 119.506 31.3068C120.081 31.6629 120.729 31.8409 121.449 31.8409C122.116 31.8409 122.703 31.6989 123.21 31.4148C123.722 31.1269 124.119 30.7216 124.403 30.1989C124.691 29.6723 124.835 29.053 124.835 28.3409L125.267 28.4318H121.767V27.1818H126.199V28.4318C126.199 29.3902 125.994 30.2235 125.585 30.9318C125.18 31.6402 124.619 32.1894 123.903 32.5795C123.191 32.9659 122.373 33.1591 121.449 33.1591C120.419 33.1591 119.513 32.9167 118.733 32.4318C117.956 31.947 117.35 31.2576 116.915 30.3636C116.483 29.4697 116.267 28.4091 116.267 27.1818C116.267 26.2614 116.39 25.4337 116.636 24.6989C116.886 23.9602 117.239 23.3314 117.693 22.8125C118.148 22.2936 118.686 21.8958 119.307 21.6193C119.928 21.3428 120.612 21.2045 121.358 21.2045C121.972 21.2045 122.544 21.2973 123.074 21.483C123.608 21.6648 124.083 21.9242 124.5 22.2614C124.92 22.5947 125.271 22.9943 125.551 23.4602C125.831 23.9223 126.025 24.4356 126.131 25H124.676ZM132.089 33.1818C131.249 33.1818 130.523 32.9962 129.913 32.625C129.307 32.25 128.839 31.7273 128.51 31.0568C128.184 30.3826 128.021 29.5985 128.021 28.7045C128.021 27.8106 128.184 27.0227 128.51 26.3409C128.839 25.6553 129.298 25.1212 129.885 24.7386C130.476 24.3523 131.165 24.1591 131.953 24.1591C132.408 24.1591 132.857 24.2348 133.3 24.3864C133.743 24.5379 134.146 24.7841 134.51 25.125C134.874 25.4621 135.163 25.9091 135.379 26.4659C135.595 27.0227 135.703 27.7083 135.703 28.5227V29.0909H128.976V27.9318H134.339C134.339 27.4394 134.241 27 134.044 26.6136C133.851 26.2273 133.574 25.9223 133.214 25.6989C132.858 25.4754 132.438 25.3636 131.953 25.3636C131.419 25.3636 130.957 25.4962 130.567 25.7614C130.18 26.0227 129.883 26.3636 129.675 26.7841C129.466 27.2045 129.362 27.6553 129.362 28.1364V28.9091C129.362 29.5682 129.476 30.1269 129.703 30.5852C129.934 31.0398 130.254 31.3864 130.663 31.625C131.072 31.8598 131.548 31.9773 132.089 31.9773C132.442 31.9773 132.76 31.928 133.044 31.8295C133.332 31.7273 133.58 31.5758 133.788 31.375C133.997 31.1705 134.158 30.9167 134.271 30.6136L135.567 30.9773C135.43 31.4167 135.201 31.803 134.879 32.1364C134.557 32.4659 134.16 32.7235 133.686 32.9091C133.213 33.0909 132.68 33.1818 132.089 33.1818ZM143.925 26.2273L142.72 26.5682C142.644 26.3674 142.533 26.1723 142.385 25.983C142.241 25.7898 142.044 25.6307 141.794 25.5057C141.544 25.3807 141.224 25.3182 140.834 25.3182C140.3 25.3182 139.855 25.4413 139.499 25.6875C139.146 25.9299 138.97 26.2386 138.97 26.6136C138.97 26.947 139.091 27.2102 139.334 27.4034C139.576 27.5966 139.955 27.7576 140.47 27.8864L141.766 28.2045C142.546 28.3939 143.127 28.6837 143.51 29.0739C143.893 29.4602 144.084 29.9583 144.084 30.5682C144.084 31.0682 143.94 31.5152 143.652 31.9091C143.368 32.303 142.97 32.6136 142.459 32.8409C141.947 33.0682 141.353 33.1818 140.675 33.1818C139.785 33.1818 139.048 32.9886 138.464 32.6023C137.881 32.2159 137.512 31.6515 137.357 30.9091L138.629 30.5909C138.75 31.0606 138.98 31.4129 139.317 31.6477C139.658 31.8826 140.103 32 140.652 32C141.277 32 141.773 31.8674 142.141 31.6023C142.512 31.3333 142.697 31.0114 142.697 30.6364C142.697 30.3333 142.591 30.0795 142.379 29.875C142.167 29.6667 141.841 29.5114 141.402 29.4091L139.947 29.0682C139.148 28.8788 138.561 28.5852 138.186 28.1875C137.815 27.786 137.629 27.2841 137.629 26.6818C137.629 26.1894 137.768 25.7538 138.044 25.375C138.324 24.9962 138.705 24.6989 139.186 24.483C139.671 24.267 140.22 24.1591 140.834 24.1591C141.697 24.1591 142.375 24.3485 142.868 24.7273C143.364 25.1061 143.716 25.6061 143.925 26.2273ZM149.898 24.2727V25.4091H145.375V24.2727H149.898ZM146.693 22.1818H148.034V30.5C148.034 30.8788 148.089 31.1629 148.199 31.3523C148.312 31.5379 148.456 31.6629 148.631 31.7273C148.809 31.7879 148.996 31.8182 149.193 31.8182C149.341 31.8182 149.462 31.8106 149.557 31.7955C149.652 31.7765 149.727 31.7614 149.784 31.75L150.057 32.9545C149.966 32.9886 149.839 33.0227 149.676 33.0568C149.513 33.0947 149.307 33.1136 149.057 33.1136C148.678 33.1136 148.307 33.0322 147.943 32.8693C147.583 32.7064 147.284 32.4583 147.045 32.125C146.811 31.7917 146.693 31.3712 146.693 30.8636V22.1818ZM157.415 29.4318V24.2727H158.756V33H157.415V31.5227H157.324C157.119 31.9659 156.801 32.3428 156.369 32.6534C155.937 32.9602 155.392 33.1136 154.733 33.1136C154.187 33.1136 153.703 32.9943 153.278 32.7557C152.854 32.5133 152.521 32.1496 152.278 31.6648C152.036 31.1761 151.915 30.5606 151.915 29.8182V24.2727H153.256V29.7273C153.256 30.3636 153.434 30.8712 153.79 31.25C154.15 31.6288 154.608 31.8182 155.165 31.8182C155.498 31.8182 155.837 31.733 156.182 31.5625C156.53 31.392 156.822 31.1307 157.057 30.7784C157.295 30.4261 157.415 29.9773 157.415 29.4318ZM161.212 33V24.2727H162.507V25.5909H162.598C162.757 25.1591 163.045 24.8087 163.462 24.5398C163.878 24.2708 164.348 24.1364 164.871 24.1364C164.969 24.1364 165.092 24.1383 165.24 24.142C165.388 24.1458 165.5 24.1515 165.575 24.1591V25.5227C165.53 25.5114 165.426 25.4943 165.263 25.4716C165.104 25.4451 164.935 25.4318 164.757 25.4318C164.333 25.4318 163.954 25.5208 163.621 25.6989C163.291 25.8731 163.03 26.1155 162.837 26.4261C162.647 26.733 162.553 27.0833 162.553 27.4773V33H161.212ZM170.558 33.1818C169.717 33.1818 168.992 32.9962 168.382 32.625C167.776 32.25 167.308 31.7273 166.979 31.0568C166.653 30.3826 166.49 29.5985 166.49 28.7045C166.49 27.8106 166.653 27.0227 166.979 26.3409C167.308 25.6553 167.767 25.1212 168.354 24.7386C168.945 24.3523 169.634 24.1591 170.422 24.1591C170.876 24.1591 171.325 24.2348 171.768 24.3864C172.212 24.5379 172.615 24.7841 172.979 25.125C173.342 25.4621 173.632 25.9091 173.848 26.4659C174.064 27.0227 174.172 27.7083 174.172 28.5227V29.0909H167.445V27.9318H172.808C172.808 27.4394 172.71 27 172.513 26.6136C172.32 26.2273 172.043 25.9223 171.683 25.6989C171.327 25.4754 170.907 25.3636 170.422 25.3636C169.888 25.3636 169.426 25.4962 169.036 25.7614C168.649 26.0227 168.352 26.3636 168.143 26.7841C167.935 27.2045 167.831 27.6553 167.831 28.1364V28.9091C167.831 29.5682 167.945 30.1269 168.172 30.5852C168.403 31.0398 168.723 31.3864 169.132 31.625C169.541 31.8598 170.017 31.9773 170.558 31.9773C170.911 31.9773 171.229 31.928 171.513 31.8295C171.801 31.7273 172.049 31.5758 172.257 31.375C172.465 31.1705 172.626 30.9167 172.74 30.6136L174.036 30.9773C173.899 31.4167 173.67 31.803 173.348 32.1364C173.026 32.4659 172.628 32.7235 172.155 32.9091C171.681 33.0909 171.149 33.1818 170.558 33.1818ZM180.893 33V21.3636H182.303V26.5455H188.507V21.3636H189.916V33H188.507V27.7955H182.303V33H180.893ZM195.124 33.2045C194.571 33.2045 194.069 33.1004 193.618 32.892C193.167 32.6799 192.809 32.375 192.544 31.9773C192.279 31.5758 192.146 31.0909 192.146 30.5227C192.146 30.0227 192.245 29.6174 192.442 29.3068C192.639 28.9924 192.902 28.7462 193.232 28.5682C193.561 28.3902 193.925 28.2576 194.322 28.1705C194.724 28.0795 195.127 28.0076 195.533 27.9545C196.063 27.8864 196.493 27.8352 196.822 27.8011C197.156 27.7633 197.398 27.7008 197.55 27.6136C197.705 27.5265 197.783 27.375 197.783 27.1591V27.1136C197.783 26.553 197.629 26.1174 197.322 25.8068C197.019 25.4962 196.559 25.3409 195.942 25.3409C195.302 25.3409 194.8 25.4811 194.436 25.7614C194.072 26.0417 193.817 26.3409 193.669 26.6591L192.396 26.2045C192.624 25.6742 192.927 25.2614 193.305 24.9659C193.688 24.6667 194.105 24.4583 194.555 24.3409C195.01 24.2197 195.457 24.1591 195.896 24.1591C196.177 24.1591 196.499 24.1932 196.862 24.2614C197.23 24.3258 197.584 24.4602 197.925 24.6648C198.269 24.8693 198.555 25.178 198.783 25.5909C199.01 26.0038 199.124 26.5568 199.124 27.25V33H197.783V31.8182H197.714C197.624 32.0076 197.472 32.2102 197.26 32.4261C197.048 32.642 196.766 32.8258 196.413 32.9773C196.061 33.1288 195.631 33.2045 195.124 33.2045ZM195.328 32C195.858 32 196.305 31.8958 196.669 31.6875C197.036 31.4792 197.313 31.2102 197.499 30.8807C197.688 30.5511 197.783 30.2045 197.783 29.8409V28.6136C197.726 28.6818 197.601 28.7443 197.408 28.8011C197.218 28.8542 196.999 28.9015 196.749 28.9432C196.502 28.9811 196.262 29.0152 196.027 29.0455C195.796 29.072 195.608 29.0947 195.464 29.1136C195.116 29.1591 194.79 29.233 194.487 29.3352C194.188 29.4337 193.946 29.5833 193.76 29.7841C193.578 29.9811 193.487 30.25 193.487 30.5909C193.487 31.0568 193.66 31.4091 194.004 31.6477C194.353 31.8826 194.794 32 195.328 32ZM202.912 27.75V33H201.571V24.2727H202.866V25.6364H202.98C203.185 25.1932 203.495 24.8371 203.912 24.5682C204.329 24.2955 204.866 24.1591 205.526 24.1591C206.116 24.1591 206.634 24.2803 207.077 24.5227C207.52 24.7614 207.865 25.125 208.111 25.6136C208.357 26.0985 208.48 26.7121 208.48 27.4545V33H207.139V27.5455C207.139 26.8598 206.961 26.3258 206.605 25.9432C206.249 25.5568 205.76 25.3636 205.139 25.3636C204.711 25.3636 204.329 25.4564 203.991 25.642C203.658 25.8277 203.395 26.0985 203.202 26.4545C203.009 26.8106 202.912 27.2424 202.912 27.75ZM214.226 33.1818C213.499 33.1818 212.857 32.9981 212.3 32.6307C211.743 32.2595 211.307 31.7367 210.993 31.0625C210.678 30.3845 210.521 29.5833 210.521 28.6591C210.521 27.7424 210.678 26.947 210.993 26.2727C211.307 25.5985 211.745 25.0777 212.305 24.7102C212.866 24.3428 213.514 24.1591 214.249 24.1591C214.817 24.1591 215.266 24.2538 215.595 24.4432C215.928 24.6288 216.182 24.8409 216.357 25.0795C216.535 25.3144 216.673 25.5076 216.771 25.6591H216.885V21.3636H218.226V33H216.93V31.6591H216.771C216.673 31.8182 216.533 32.0189 216.351 32.2614C216.169 32.5 215.91 32.714 215.572 32.9034C215.235 33.089 214.786 33.1818 214.226 33.1818ZM214.408 31.9773C214.946 31.9773 215.4 31.8371 215.771 31.5568C216.143 31.2727 216.425 30.8807 216.618 30.3807C216.811 29.8769 216.908 29.2955 216.908 28.6364C216.908 27.9848 216.813 27.4148 216.624 26.9261C216.434 26.4337 216.154 26.0511 215.783 25.7784C215.411 25.5019 214.953 25.3636 214.408 25.3636C213.839 25.3636 213.366 25.5095 212.987 25.8011C212.612 26.089 212.33 26.4811 212.141 26.9773C211.955 27.4697 211.862 28.0227 211.862 28.6364C211.862 29.2576 211.957 29.822 212.146 30.3295C212.339 30.8333 212.624 31.2348 212.999 31.5341C213.377 31.8295 213.847 31.9773 214.408 31.9773ZM222.209 21.3636V33H220.868V21.3636H222.209ZM228.324 33.1818C227.483 33.1818 226.758 32.9962 226.148 32.625C225.542 32.25 225.074 31.7273 224.744 31.0568C224.419 30.3826 224.256 29.5985 224.256 28.7045C224.256 27.8106 224.419 27.0227 224.744 26.3409C225.074 25.6553 225.532 25.1212 226.119 24.7386C226.71 24.3523 227.4 24.1591 228.187 24.1591C228.642 24.1591 229.091 24.2348 229.534 24.3864C229.977 24.5379 230.381 24.7841 230.744 25.125C231.108 25.4621 231.398 25.9091 231.614 26.4659C231.83 27.0227 231.937 27.7083 231.937 28.5227V29.0909H225.21V27.9318H230.574C230.574 27.4394 230.475 27 230.278 26.6136C230.085 26.2273 229.809 25.9223 229.449 25.6989C229.093 25.4754 228.672 25.3636 228.187 25.3636C227.653 25.3636 227.191 25.4962 226.801 25.7614C226.415 26.0227 226.117 26.3636 225.909 26.7841C225.701 27.2045 225.597 27.6553 225.597 28.1364V28.9091C225.597 29.5682 225.71 30.1269 225.937 30.5852C226.169 31.0398 226.489 31.3864 226.898 31.625C227.307 31.8598 227.782 31.9773 228.324 31.9773C228.676 31.9773 228.994 31.928 229.278 31.8295C229.566 31.7273 229.814 31.5758 230.023 31.375C230.231 31.1705 230.392 30.9167 230.506 30.6136L231.801 30.9773C231.665 31.4167 231.436 31.803 231.114 32.1364C230.792 32.4659 230.394 32.7235 229.92 32.9091C229.447 33.0909 228.915 33.1818 228.324 33.1818ZM233.977 33V24.2727H235.273V25.5909H235.364C235.523 25.1591 235.811 24.8087 236.227 24.5398C236.644 24.2708 237.114 24.1364 237.636 24.1364C237.735 24.1364 237.858 24.1383 238.006 24.142C238.153 24.1458 238.265 24.1515 238.341 24.1591V25.5227C238.295 25.5114 238.191 25.4943 238.028 25.4716C237.869 25.4451 237.701 25.4318 237.523 25.4318C237.098 25.4318 236.72 25.5208 236.386 25.6989C236.057 25.8731 235.795 26.1155 235.602 26.4261C235.413 26.733 235.318 27.0833 235.318 27.4773V33H233.977Z" fill="white" fill-opacity="0.85"/>
<foreignObject x="59" y="78" width="110" height="63"><div xmlns="http://www.w3.org/1999/xhtml" style="backdrop-filter:blur(2px);clip-path:url(#bgblur_2_513_22119_clip_path);height:100%;width:100%"></div></foreignObject><g data-figma-bg-blur-radius="4">
<rect x="63.4516" y="82.4516" width="101.097" height="54.0968" rx="27.0484" fill="black" fill-opacity="0.08"/>
<rect x="63.4516" y="82.4516" width="101.097" height="54.0968" rx="27.0484" stroke="white" stroke-opacity="0.08" stroke-width="0.903234"/>
<rect x="63.4516" y="82.4516" width="101.097" height="54.0968" rx="27.0484" stroke="url(#paint2_linear_513_22119)" stroke-width="0.903234"/>
</g>
<rect x="71.465" y="90.465" width="85.07" height="38.07" rx="19.035" fill="#18181B"/>
<rect x="71.465" y="90.465" width="85.07" height="38.07" rx="19.035" stroke="#27272A" stroke-width="0.930032"/>
<path d="M86.4091 115V103.364H90.3409C91.2538 103.364 92 103.528 92.5795 103.858C93.1629 104.184 93.5947 104.625 93.875 105.182C94.1553 105.739 94.2955 106.36 94.2955 107.045C94.2955 107.731 94.1553 108.354 93.875 108.915C93.5985 109.475 93.1705 109.922 92.5909 110.256C92.0114 110.585 91.2689 110.75 90.3636 110.75H87.5455V109.5H90.3182C90.9432 109.5 91.4451 109.392 91.8239 109.176C92.2027 108.96 92.4773 108.669 92.6477 108.301C92.822 107.93 92.9091 107.511 92.9091 107.045C92.9091 106.58 92.822 106.163 92.6477 105.795C92.4773 105.428 92.2008 105.14 91.8182 104.932C91.4356 104.72 90.928 104.614 90.2955 104.614H87.8182V115H86.4091ZM96.3835 115V106.273H97.679V107.591H97.7699C97.929 107.159 98.2169 106.809 98.6335 106.54C99.0502 106.271 99.5199 106.136 100.043 106.136C100.141 106.136 100.264 106.138 100.412 106.142C100.56 106.146 100.671 106.152 100.747 106.159V107.523C100.702 107.511 100.598 107.494 100.435 107.472C100.276 107.445 100.107 107.432 99.929 107.432C99.5047 107.432 99.1259 107.521 98.7926 107.699C98.4631 107.873 98.2017 108.116 98.0085 108.426C97.8191 108.733 97.7244 109.083 97.7244 109.477V115H96.3835ZM105.73 115.182C104.889 115.182 104.164 114.996 103.554 114.625C102.948 114.25 102.48 113.727 102.151 113.057C101.825 112.383 101.662 111.598 101.662 110.705C101.662 109.811 101.825 109.023 102.151 108.341C102.48 107.655 102.938 107.121 103.526 106.739C104.116 106.352 104.806 106.159 105.594 106.159C106.048 106.159 106.497 106.235 106.94 106.386C107.384 106.538 107.787 106.784 108.151 107.125C108.514 107.462 108.804 107.909 109.02 108.466C109.236 109.023 109.344 109.708 109.344 110.523V111.091H102.616V109.932H107.98C107.98 109.439 107.882 109 107.685 108.614C107.491 108.227 107.215 107.922 106.855 107.699C106.499 107.475 106.079 107.364 105.594 107.364C105.06 107.364 104.598 107.496 104.207 107.761C103.821 108.023 103.524 108.364 103.315 108.784C103.107 109.205 103.003 109.655 103.003 110.136V110.909C103.003 111.568 103.116 112.127 103.344 112.585C103.575 113.04 103.895 113.386 104.304 113.625C104.713 113.86 105.188 113.977 105.73 113.977C106.082 113.977 106.401 113.928 106.685 113.83C106.973 113.727 107.221 113.576 107.429 113.375C107.637 113.17 107.798 112.917 107.912 112.614L109.207 112.977C109.071 113.417 108.842 113.803 108.52 114.136C108.198 114.466 107.8 114.723 107.327 114.909C106.853 115.091 106.321 115.182 105.73 115.182ZM112.724 103.364V115H111.384V103.364H112.724ZM118.726 115.182C117.938 115.182 117.247 114.994 116.652 114.619C116.061 114.244 115.599 113.72 115.266 113.045C114.936 112.371 114.771 111.583 114.771 110.682C114.771 109.773 114.936 108.979 115.266 108.301C115.599 107.623 116.061 107.097 116.652 106.722C117.247 106.347 117.938 106.159 118.726 106.159C119.514 106.159 120.203 106.347 120.794 106.722C121.389 107.097 121.851 107.623 122.18 108.301C122.514 108.979 122.68 109.773 122.68 110.682C122.68 111.583 122.514 112.371 122.18 113.045C121.851 113.72 121.389 114.244 120.794 114.619C120.203 114.994 119.514 115.182 118.726 115.182ZM118.726 113.977C119.324 113.977 119.817 113.824 120.203 113.517C120.589 113.21 120.875 112.807 121.061 112.307C121.247 111.807 121.339 111.265 121.339 110.682C121.339 110.098 121.247 109.555 121.061 109.051C120.875 108.547 120.589 108.14 120.203 107.83C119.817 107.519 119.324 107.364 118.726 107.364C118.127 107.364 117.635 107.519 117.249 107.83C116.862 108.14 116.576 108.547 116.391 109.051C116.205 109.555 116.112 110.098 116.112 110.682C116.112 111.265 116.205 111.807 116.391 112.307C116.576 112.807 116.862 113.21 117.249 113.517C117.635 113.824 118.127 113.977 118.726 113.977ZM127.295 115.205C126.742 115.205 126.241 115.1 125.79 114.892C125.339 114.68 124.981 114.375 124.716 113.977C124.451 113.576 124.318 113.091 124.318 112.523C124.318 112.023 124.417 111.617 124.614 111.307C124.811 110.992 125.074 110.746 125.403 110.568C125.733 110.39 126.097 110.258 126.494 110.17C126.896 110.08 127.299 110.008 127.705 109.955C128.235 109.886 128.665 109.835 128.994 109.801C129.328 109.763 129.57 109.701 129.722 109.614C129.877 109.527 129.955 109.375 129.955 109.159V109.114C129.955 108.553 129.801 108.117 129.494 107.807C129.191 107.496 128.731 107.341 128.114 107.341C127.473 107.341 126.972 107.481 126.608 107.761C126.244 108.042 125.989 108.341 125.841 108.659L124.568 108.205C124.795 107.674 125.098 107.261 125.477 106.966C125.86 106.667 126.277 106.458 126.727 106.341C127.182 106.22 127.629 106.159 128.068 106.159C128.348 106.159 128.67 106.193 129.034 106.261C129.402 106.326 129.756 106.46 130.097 106.665C130.441 106.869 130.727 107.178 130.955 107.591C131.182 108.004 131.295 108.557 131.295 109.25V115H129.955V113.818H129.886C129.795 114.008 129.644 114.21 129.432 114.426C129.22 114.642 128.938 114.826 128.585 114.977C128.233 115.129 127.803 115.205 127.295 115.205ZM127.5 114C128.03 114 128.477 113.896 128.841 113.688C129.208 113.479 129.485 113.21 129.67 112.881C129.86 112.551 129.955 112.205 129.955 111.841V110.614C129.898 110.682 129.773 110.744 129.58 110.801C129.39 110.854 129.17 110.902 128.92 110.943C128.674 110.981 128.434 111.015 128.199 111.045C127.968 111.072 127.78 111.095 127.636 111.114C127.288 111.159 126.962 111.233 126.659 111.335C126.36 111.434 126.117 111.583 125.932 111.784C125.75 111.981 125.659 112.25 125.659 112.591C125.659 113.057 125.831 113.409 126.176 113.648C126.525 113.883 126.966 114 127.5 114ZM137.038 115.182C136.311 115.182 135.669 114.998 135.112 114.631C134.555 114.259 134.12 113.737 133.805 113.063C133.491 112.384 133.334 111.583 133.334 110.659C133.334 109.742 133.491 108.947 133.805 108.273C134.12 107.598 134.557 107.078 135.118 106.71C135.679 106.343 136.326 106.159 137.061 106.159C137.629 106.159 138.078 106.254 138.408 106.443C138.741 106.629 138.995 106.841 139.169 107.08C139.347 107.314 139.485 107.508 139.584 107.659H139.697V103.364H141.038V115H139.743V113.659H139.584C139.485 113.818 139.345 114.019 139.163 114.261C138.982 114.5 138.722 114.714 138.385 114.903C138.048 115.089 137.599 115.182 137.038 115.182ZM137.22 113.977C137.758 113.977 138.213 113.837 138.584 113.557C138.955 113.273 139.237 112.881 139.43 112.381C139.624 111.877 139.72 111.295 139.72 110.636C139.72 109.985 139.625 109.415 139.436 108.926C139.247 108.434 138.966 108.051 138.595 107.778C138.224 107.502 137.766 107.364 137.22 107.364C136.652 107.364 136.179 107.509 135.8 107.801C135.425 108.089 135.143 108.481 134.953 108.977C134.768 109.47 134.675 110.023 134.675 110.636C134.675 111.258 134.769 111.822 134.959 112.33C135.152 112.833 135.436 113.235 135.811 113.534C136.19 113.83 136.66 113.977 137.22 113.977Z" fill="white" fill-opacity="0.85"/>
<foreignObject x="335" y="109" width="186" height="63"><div xmlns="http://www.w3.org/1999/xhtml" style="backdrop-filter:blur(2px);clip-path:url(#bgblur_3_513_22119_clip_path);height:100%;width:100%"></div></foreignObject><g data-figma-bg-blur-radius="4">
<rect x="339.452" y="113.452" width="177.097" height="54.0968" rx="27.0484" fill="black" fill-opacity="0.08"/>
<rect x="339.452" y="113.452" width="177.097" height="54.0968" rx="27.0484" stroke="white" stroke-opacity="0.08" stroke-width="0.903234"/>
<rect x="339.452" y="113.452" width="177.097" height="54.0968" rx="27.0484" stroke="url(#paint3_linear_513_22119)" stroke-width="0.903234"/>
</g>
<rect x="347.465" y="121.569" width="161.07" height="38.07" rx="19.035" fill="#18181B"/>
<rect x="347.465" y="121.569" width="161.07" height="38.07" rx="19.035" stroke="#27272A" stroke-width="0.930032"/>
<path d="M362.409 146.104V134.468H363.818V144.854H369.227V146.104H362.409ZM371.227 146.104V137.377H372.568V146.104H371.227ZM371.909 135.922C371.648 135.922 371.422 135.833 371.233 135.655C371.047 135.477 370.955 135.263 370.955 135.013C370.955 134.763 371.047 134.549 371.233 134.371C371.422 134.193 371.648 134.104 371.909 134.104C372.17 134.104 372.394 134.193 372.58 134.371C372.769 134.549 372.864 134.763 372.864 135.013C372.864 135.263 372.769 135.477 372.58 135.655C372.394 135.833 372.17 135.922 371.909 135.922ZM381.206 139.331L380.001 139.672C379.926 139.471 379.814 139.276 379.666 139.087C379.522 138.894 379.325 138.735 379.075 138.61C378.825 138.485 378.505 138.422 378.115 138.422C377.581 138.422 377.136 138.545 376.78 138.792C376.428 139.034 376.251 139.343 376.251 139.718C376.251 140.051 376.373 140.314 376.615 140.507C376.857 140.701 377.236 140.862 377.751 140.99L379.047 141.309C379.827 141.498 380.409 141.788 380.791 142.178C381.174 142.564 381.365 143.062 381.365 143.672C381.365 144.172 381.221 144.619 380.933 145.013C380.649 145.407 380.251 145.718 379.74 145.945C379.229 146.172 378.634 146.286 377.956 146.286C377.066 146.286 376.329 146.093 375.746 145.706C375.162 145.32 374.793 144.756 374.638 144.013L375.911 143.695C376.032 144.165 376.261 144.517 376.598 144.752C376.939 144.987 377.384 145.104 377.933 145.104C378.558 145.104 379.054 144.971 379.422 144.706C379.793 144.437 379.979 144.115 379.979 143.74C379.979 143.437 379.873 143.184 379.661 142.979C379.448 142.771 379.123 142.615 378.683 142.513L377.229 142.172C376.429 141.983 375.842 141.689 375.467 141.292C375.096 140.89 374.911 140.388 374.911 139.786C374.911 139.293 375.049 138.858 375.325 138.479C375.606 138.1 375.986 137.803 376.467 137.587C376.952 137.371 377.501 137.263 378.115 137.263C378.979 137.263 379.657 137.452 380.149 137.831C380.645 138.21 380.998 138.71 381.206 139.331ZM387.179 137.377V138.513H382.656V137.377H387.179ZM383.974 135.286H385.315V143.604C385.315 143.983 385.37 144.267 385.48 144.456C385.594 144.642 385.738 144.767 385.912 144.831C386.09 144.892 386.277 144.922 386.474 144.922C386.622 144.922 386.743 144.915 386.838 144.899C386.933 144.881 387.009 144.865 387.065 144.854L387.338 146.059C387.247 146.093 387.12 146.127 386.957 146.161C386.795 146.199 386.588 146.218 386.338 146.218C385.959 146.218 385.588 146.136 385.224 145.973C384.865 145.81 384.565 145.562 384.327 145.229C384.092 144.896 383.974 144.475 383.974 143.968V135.286ZM393.878 146.104V134.468H397.946C398.757 134.468 399.425 134.608 399.952 134.888C400.478 135.165 400.87 135.538 401.128 136.007C401.385 136.473 401.514 136.99 401.514 137.559C401.514 138.059 401.425 138.471 401.247 138.797C401.073 139.123 400.842 139.381 400.554 139.57C400.27 139.759 399.961 139.899 399.628 139.99V140.104C399.984 140.127 400.342 140.252 400.702 140.479C401.062 140.706 401.363 141.032 401.605 141.456C401.848 141.881 401.969 142.399 401.969 143.013C401.969 143.596 401.836 144.121 401.571 144.587C401.306 145.053 400.887 145.422 400.315 145.695C399.743 145.968 398.999 146.104 398.082 146.104H393.878ZM395.287 144.854H398.082C399.003 144.854 399.656 144.676 400.043 144.32C400.433 143.96 400.628 143.524 400.628 143.013C400.628 142.619 400.527 142.256 400.327 141.922C400.126 141.585 399.84 141.316 399.469 141.115C399.098 140.911 398.658 140.809 398.151 140.809H395.287V144.854ZM395.287 139.581H397.901C398.325 139.581 398.707 139.498 399.048 139.331C399.393 139.165 399.666 138.93 399.866 138.627C400.071 138.324 400.173 137.968 400.173 137.559C400.173 137.047 399.995 136.613 399.639 136.257C399.283 135.898 398.719 135.718 397.946 135.718H395.287V139.581ZM406.67 146.309C406.117 146.309 405.616 146.204 405.165 145.996C404.714 145.784 404.356 145.479 404.091 145.081C403.826 144.68 403.693 144.195 403.693 143.627C403.693 143.127 403.792 142.721 403.989 142.411C404.186 142.096 404.449 141.85 404.778 141.672C405.108 141.494 405.472 141.362 405.869 141.274C406.271 141.184 406.674 141.112 407.08 141.059C407.61 140.99 408.04 140.939 408.369 140.905C408.703 140.867 408.945 140.805 409.097 140.718C409.252 140.631 409.33 140.479 409.33 140.263V140.218C409.33 139.657 409.176 139.221 408.869 138.911C408.566 138.6 408.106 138.445 407.489 138.445C406.848 138.445 406.347 138.585 405.983 138.865C405.619 139.146 405.364 139.445 405.216 139.763L403.943 139.309C404.17 138.778 404.473 138.365 404.852 138.07C405.235 137.771 405.652 137.562 406.102 137.445C406.557 137.324 407.004 137.263 407.443 137.263C407.723 137.263 408.045 137.297 408.409 137.365C408.777 137.43 409.131 137.564 409.472 137.769C409.816 137.973 410.102 138.282 410.33 138.695C410.557 139.108 410.67 139.661 410.67 140.354V146.104H409.33V144.922H409.261C409.17 145.112 409.019 145.314 408.807 145.53C408.595 145.746 408.313 145.93 407.96 146.081C407.608 146.233 407.178 146.309 406.67 146.309ZM406.875 145.104C407.405 145.104 407.852 145 408.216 144.792C408.583 144.583 408.86 144.314 409.045 143.985C409.235 143.655 409.33 143.309 409.33 142.945V141.718C409.273 141.786 409.148 141.848 408.955 141.905C408.765 141.958 408.545 142.006 408.295 142.047C408.049 142.085 407.809 142.119 407.574 142.149C407.343 142.176 407.155 142.199 407.011 142.218C406.663 142.263 406.337 142.337 406.034 142.439C405.735 142.538 405.492 142.687 405.307 142.888C405.125 143.085 405.034 143.354 405.034 143.695C405.034 144.161 405.206 144.513 405.551 144.752C405.9 144.987 406.341 145.104 406.875 145.104ZM416.913 137.377V138.513H412.391V137.377H416.913ZM413.709 135.286H415.05V143.604C415.05 143.983 415.105 144.267 415.214 144.456C415.328 144.642 415.472 144.767 415.646 144.831C415.824 144.892 416.012 144.922 416.209 144.922C416.357 144.922 416.478 144.915 416.572 144.899C416.667 144.881 416.743 144.865 416.8 144.854L417.072 146.059C416.982 146.093 416.855 146.127 416.692 146.161C416.529 146.199 416.322 146.218 416.072 146.218C415.694 146.218 415.322 146.136 414.959 145.973C414.599 145.81 414.3 145.562 414.061 145.229C413.826 144.896 413.709 144.475 413.709 143.968V135.286ZM422.382 146.286C421.564 146.286 420.859 146.093 420.268 145.706C419.678 145.32 419.223 144.788 418.905 144.11C418.587 143.432 418.428 142.657 418.428 141.786C418.428 140.899 418.59 140.117 418.916 139.439C419.246 138.757 419.704 138.225 420.291 137.843C420.882 137.456 421.571 137.263 422.359 137.263C422.973 137.263 423.526 137.377 424.018 137.604C424.511 137.831 424.914 138.149 425.229 138.559C425.543 138.968 425.738 139.445 425.814 139.99H424.473C424.371 139.593 424.143 139.24 423.791 138.934C423.443 138.623 422.973 138.468 422.382 138.468C421.859 138.468 421.401 138.604 421.007 138.877C420.617 139.146 420.312 139.526 420.092 140.019C419.876 140.507 419.768 141.081 419.768 141.74C419.768 142.415 419.875 143.002 420.087 143.502C420.303 144.002 420.606 144.39 420.996 144.667C421.39 144.943 421.852 145.081 422.382 145.081C422.731 145.081 423.047 145.021 423.331 144.899C423.615 144.778 423.856 144.604 424.053 144.377C424.25 144.149 424.39 143.877 424.473 143.559H425.814C425.738 144.074 425.551 144.538 425.251 144.951C424.956 145.36 424.564 145.685 424.075 145.928C423.59 146.167 423.026 146.286 422.382 146.286ZM429.115 140.854V146.104H427.774V134.468H429.115V138.74H429.229C429.433 138.29 429.74 137.932 430.149 137.667C430.562 137.398 431.111 137.263 431.797 137.263C432.392 137.263 432.912 137.382 433.359 137.621C433.806 137.856 434.153 138.218 434.399 138.706C434.649 139.191 434.774 139.809 434.774 140.559V146.104H433.433V140.649C433.433 139.956 433.253 139.42 432.893 139.042C432.537 138.659 432.043 138.468 431.411 138.468C430.971 138.468 430.577 138.56 430.229 138.746C429.884 138.932 429.611 139.202 429.411 139.559C429.214 139.915 429.115 140.346 429.115 140.854ZM441.909 146.104V134.468H445.841C446.75 134.468 447.496 134.623 448.08 134.934C448.663 135.24 449.095 135.663 449.375 136.201C449.655 136.738 449.795 137.35 449.795 138.036C449.795 138.721 449.655 139.329 449.375 139.86C449.095 140.39 448.665 140.807 448.085 141.11C447.506 141.409 446.765 141.559 445.864 141.559H442.682V140.286H445.818C446.439 140.286 446.939 140.195 447.318 140.013C447.701 139.831 447.977 139.574 448.148 139.24C448.322 138.903 448.409 138.502 448.409 138.036C448.409 137.57 448.322 137.163 448.148 136.814C447.973 136.466 447.695 136.197 447.312 136.007C446.93 135.814 446.424 135.718 445.795 135.718H443.318V146.104H441.909ZM447.386 140.877L450.25 146.104H448.614L445.795 140.877H447.386ZM455.527 146.286C454.686 146.286 453.961 146.1 453.351 145.729C452.745 145.354 452.277 144.831 451.947 144.161C451.622 143.487 451.459 142.702 451.459 141.809C451.459 140.915 451.622 140.127 451.947 139.445C452.277 138.759 452.735 138.225 453.322 137.843C453.913 137.456 454.603 137.263 455.391 137.263C455.845 137.263 456.294 137.339 456.737 137.49C457.18 137.642 457.584 137.888 457.947 138.229C458.311 138.566 458.601 139.013 458.817 139.57C459.033 140.127 459.141 140.812 459.141 141.627V142.195H452.413V141.036H457.777C457.777 140.543 457.679 140.104 457.482 139.718C457.288 139.331 457.012 139.026 456.652 138.803C456.296 138.579 455.875 138.468 455.391 138.468C454.857 138.468 454.394 138.6 454.004 138.865C453.618 139.127 453.321 139.468 453.112 139.888C452.904 140.309 452.8 140.759 452.8 141.24V142.013C452.8 142.672 452.913 143.231 453.141 143.689C453.372 144.144 453.692 144.49 454.101 144.729C454.51 144.964 454.985 145.081 455.527 145.081C455.879 145.081 456.197 145.032 456.482 144.934C456.769 144.831 457.018 144.68 457.226 144.479C457.434 144.274 457.595 144.021 457.709 143.718L459.004 144.081C458.868 144.521 458.639 144.907 458.317 145.24C457.995 145.57 457.597 145.827 457.124 146.013C456.65 146.195 456.118 146.286 455.527 146.286ZM462.521 140.854V146.104H461.18V137.377H462.476V138.74H462.589C462.794 138.297 463.105 137.941 463.521 137.672C463.938 137.399 464.476 137.263 465.135 137.263C465.726 137.263 466.243 137.384 466.686 137.627C467.129 137.865 467.474 138.229 467.72 138.718C467.966 139.202 468.089 139.816 468.089 140.559V146.104H466.749V140.649C466.749 139.964 466.571 139.43 466.214 139.047C465.858 138.661 465.37 138.468 464.749 138.468C464.321 138.468 463.938 138.56 463.601 138.746C463.268 138.932 463.004 139.202 462.811 139.559C462.618 139.915 462.521 140.346 462.521 140.854ZM473.835 146.286C473.108 146.286 472.466 146.102 471.909 145.735C471.352 145.363 470.917 144.841 470.602 144.167C470.288 143.488 470.131 142.687 470.131 141.763C470.131 140.846 470.288 140.051 470.602 139.377C470.917 138.702 471.354 138.182 471.915 137.814C472.475 137.447 473.123 137.263 473.858 137.263C474.426 137.263 474.875 137.358 475.205 137.547C475.538 137.733 475.792 137.945 475.966 138.184C476.144 138.418 476.282 138.612 476.381 138.763H476.494V134.468H477.835V146.104H476.54V144.763H476.381C476.282 144.922 476.142 145.123 475.96 145.365C475.778 145.604 475.519 145.818 475.182 146.007C474.845 146.193 474.396 146.286 473.835 146.286ZM474.017 145.081C474.555 145.081 475.009 144.941 475.381 144.661C475.752 144.377 476.034 143.985 476.227 143.485C476.42 142.981 476.517 142.399 476.517 141.74C476.517 141.089 476.422 140.519 476.233 140.03C476.044 139.538 475.763 139.155 475.392 138.882C475.021 138.606 474.563 138.468 474.017 138.468C473.449 138.468 472.975 138.613 472.597 138.905C472.222 139.193 471.939 139.585 471.75 140.081C471.564 140.574 471.472 141.127 471.472 141.74C471.472 142.362 471.566 142.926 471.756 143.434C471.949 143.937 472.233 144.339 472.608 144.638C472.987 144.934 473.456 145.081 474.017 145.081ZM484.136 146.286C483.295 146.286 482.57 146.1 481.96 145.729C481.354 145.354 480.886 144.831 480.557 144.161C480.231 143.487 480.068 142.702 480.068 141.809C480.068 140.915 480.231 140.127 480.557 139.445C480.886 138.759 481.345 138.225 481.932 137.843C482.523 137.456 483.212 137.263 484 137.263C484.455 137.263 484.903 137.339 485.347 137.49C485.79 137.642 486.193 137.888 486.557 138.229C486.92 138.566 487.21 139.013 487.426 139.57C487.642 140.127 487.75 140.812 487.75 141.627V142.195H481.023V141.036H486.386C486.386 140.543 486.288 140.104 486.091 139.718C485.898 139.331 485.621 139.026 485.261 138.803C484.905 138.579 484.485 138.468 484 138.468C483.466 138.468 483.004 138.6 482.614 138.865C482.227 139.127 481.93 139.468 481.722 139.888C481.513 140.309 481.409 140.759 481.409 141.24V142.013C481.409 142.672 481.523 143.231 481.75 143.689C481.981 144.144 482.301 144.49 482.71 144.729C483.119 144.964 483.595 145.081 484.136 145.081C484.489 145.081 484.807 145.032 485.091 144.934C485.379 144.831 485.627 144.68 485.835 144.479C486.044 144.274 486.205 144.021 486.318 143.718L487.614 144.081C487.477 144.521 487.248 144.907 486.926 145.24C486.604 145.57 486.206 145.827 485.733 146.013C485.259 146.195 484.727 146.286 484.136 146.286ZM489.79 146.104V137.377H491.085V138.695H491.176C491.335 138.263 491.623 137.913 492.04 137.644C492.456 137.375 492.926 137.24 493.449 137.24C493.547 137.24 493.67 137.242 493.818 137.246C493.966 137.25 494.078 137.256 494.153 137.263V138.627C494.108 138.615 494.004 138.598 493.841 138.576C493.682 138.549 493.513 138.536 493.335 138.536C492.911 138.536 492.532 138.625 492.199 138.803C491.869 138.977 491.608 139.22 491.415 139.53C491.225 139.837 491.131 140.187 491.131 140.581V146.104H489.79Z" fill="white" fill-opacity="0.85"/>
<foreignObject x="314" y="197" width="84" height="63"><div xmlns="http://www.w3.org/1999/xhtml" style="backdrop-filter:blur(2px);clip-path:url(#bgblur_4_513_22119_clip_path);height:100%;width:100%"></div></foreignObject><g data-figma-bg-blur-radius="4">
<rect x="318.452" y="201.452" width="75.0968" height="54.0968" rx="27.0484" fill="black" fill-opacity="0.08"/>
<rect x="318.452" y="201.452" width="75.0968" height="54.0968" rx="27.0484" stroke="white" stroke-opacity="0.08" stroke-width="0.903234"/>
<rect x="318.452" y="201.452" width="75.0968" height="54.0968" rx="27.0484" stroke="url(#paint4_linear_513_22119)" stroke-width="0.903234"/>
</g>
<rect x="326.465" y="209.465" width="59.07" height="38.07" rx="19.035" fill="#18181B"/>
<rect x="326.465" y="209.465" width="59.07" height="38.07" rx="19.035" stroke="#27272A" stroke-width="0.930032"/>
<path d="M347.773 225.273C347.705 224.697 347.428 224.25 346.943 223.932C346.458 223.614 345.864 223.455 345.159 223.455C344.644 223.455 344.193 223.538 343.807 223.705C343.424 223.871 343.125 224.1 342.909 224.392C342.697 224.684 342.591 225.015 342.591 225.386C342.591 225.697 342.665 225.964 342.812 226.188C342.964 226.407 343.157 226.591 343.392 226.739C343.627 226.883 343.873 227.002 344.131 227.097C344.388 227.187 344.625 227.261 344.841 227.318L346.023 227.636C346.326 227.716 346.663 227.826 347.034 227.966C347.409 228.106 347.767 228.297 348.108 228.54C348.453 228.778 348.737 229.085 348.96 229.46C349.184 229.835 349.295 230.295 349.295 230.841C349.295 231.47 349.131 232.038 348.801 232.545C348.475 233.053 347.998 233.456 347.369 233.756C346.744 234.055 345.985 234.205 345.091 234.205C344.258 234.205 343.536 234.07 342.926 233.801C342.32 233.532 341.843 233.157 341.494 232.676C341.15 232.195 340.955 231.636 340.909 231H342.364C342.402 231.439 342.549 231.803 342.807 232.091C343.068 232.375 343.398 232.587 343.795 232.727C344.197 232.864 344.629 232.932 345.091 232.932C345.629 232.932 346.112 232.845 346.54 232.67C346.968 232.492 347.307 232.246 347.557 231.932C347.807 231.614 347.932 231.242 347.932 230.818C347.932 230.432 347.824 230.117 347.608 229.875C347.392 229.633 347.108 229.436 346.756 229.284C346.403 229.133 346.023 229 345.614 228.886L344.182 228.477C343.273 228.216 342.553 227.843 342.023 227.358C341.492 226.873 341.227 226.239 341.227 225.455C341.227 224.803 341.403 224.235 341.756 223.75C342.112 223.261 342.589 222.883 343.188 222.614C343.79 222.341 344.462 222.205 345.205 222.205C345.955 222.205 346.621 222.339 347.205 222.608C347.788 222.873 348.25 223.237 348.591 223.699C348.936 224.161 349.117 224.686 349.136 225.273H347.773ZM351.612 234V222.364H358.589V223.614H353.021V227.545H358.067V228.795H353.021V234H351.612ZM370.366 226H368.957C368.874 225.595 368.728 225.239 368.52 224.932C368.315 224.625 368.065 224.367 367.77 224.159C367.478 223.947 367.154 223.788 366.798 223.682C366.442 223.576 366.071 223.523 365.685 223.523C364.98 223.523 364.342 223.701 363.77 224.057C363.202 224.413 362.749 224.938 362.412 225.631C362.079 226.324 361.912 227.174 361.912 228.182C361.912 229.189 362.079 230.04 362.412 230.733C362.749 231.426 363.202 231.951 363.77 232.307C364.342 232.663 364.98 232.841 365.685 232.841C366.071 232.841 366.442 232.788 366.798 232.682C367.154 232.576 367.478 232.419 367.77 232.21C368.065 231.998 368.315 231.739 368.52 231.432C368.728 231.121 368.874 230.765 368.957 230.364H370.366C370.26 230.958 370.067 231.491 369.787 231.96C369.507 232.43 369.158 232.83 368.741 233.159C368.325 233.485 367.857 233.733 367.338 233.903C366.823 234.074 366.272 234.159 365.685 234.159C364.692 234.159 363.81 233.917 363.037 233.432C362.264 232.947 361.656 232.258 361.213 231.364C360.77 230.47 360.548 229.409 360.548 228.182C360.548 226.955 360.77 225.894 361.213 225C361.656 224.106 362.264 223.417 363.037 222.932C363.81 222.447 364.692 222.205 365.685 222.205C366.272 222.205 366.823 222.29 367.338 222.46C367.857 222.631 368.325 222.881 368.741 223.21C369.158 223.536 369.507 223.934 369.787 224.403C370.067 224.869 370.26 225.402 370.366 226Z" fill="white" fill-opacity="0.85"/>
<foreignObject x="265" y="32" width="86" height="63"><div xmlns="http://www.w3.org/1999/xhtml" style="backdrop-filter:blur(2px);clip-path:url(#bgblur_5_513_22119_clip_path);height:100%;width:100%"></div></foreignObject><g data-figma-bg-blur-radius="4">
<rect x="269.452" y="36.4516" width="77.0968" height="54.0968" rx="27.0484" fill="black" fill-opacity="0.08"/>
<rect x="269.452" y="36.4516" width="77.0968" height="54.0968" rx="27.0484" stroke="white" stroke-opacity="0.08" stroke-width="0.903234"/>
<rect x="269.452" y="36.4516" width="77.0968" height="54.0968" rx="27.0484" stroke="url(#paint5_linear_513_22119)" stroke-width="0.903234"/>
</g>
<rect x="277.465" y="44.465" width="61.07" height="38.07" rx="19.035" fill="#18181B"/>
<rect x="277.465" y="44.465" width="61.07" height="38.07" rx="19.035" stroke="#27272A" stroke-width="0.930032"/>
<path d="M292.409 69V57.3636H299.386V58.6136H293.818V62.5455H298.864V63.7955H293.818V69H292.409ZM301.8 57.3636H303.482L307.436 67.0227H307.572L311.527 57.3636H313.209V69H311.891V60.1591H311.777L308.141 69H306.868L303.232 60.1591H303.118V69H301.8V57.3636ZM316.034 69V57.3636H319.966C320.879 57.3636 321.625 57.5284 322.205 57.858C322.788 58.1837 323.22 58.625 323.5 59.1818C323.78 59.7386 323.92 60.3598 323.92 61.0455C323.92 61.7311 323.78 62.3542 323.5 62.9148C323.223 63.4754 322.795 63.9223 322.216 64.2557C321.636 64.5852 320.894 64.75 319.989 64.75H317.17V63.5H319.943C320.568 63.5 321.07 63.392 321.449 63.1761C321.828 62.9602 322.102 62.6686 322.273 62.3011C322.447 61.9299 322.534 61.5114 322.534 61.0455C322.534 60.5795 322.447 60.1629 322.273 59.7955C322.102 59.428 321.826 59.1402 321.443 58.9318C321.061 58.7197 320.553 58.6136 319.92 58.6136H317.443V69H316.034Z" fill="white" fill-opacity="0.85"/>
<foreignObject x="71" y="250" width="158" height="63"><div xmlns="http://www.w3.org/1999/xhtml" style="backdrop-filter:blur(2px);clip-path:url(#bgblur_6_513_22119_clip_path);height:100%;width:100%"></div></foreignObject><g data-figma-bg-blur-radius="4">
<rect x="75.4516" y="254.452" width="149.097" height="54.0968" rx="27.0484" fill="black" fill-opacity="0.08"/>
<rect x="75.4516" y="254.452" width="149.097" height="54.0968" rx="27.0484" stroke="white" stroke-opacity="0.08" stroke-width="0.903234"/>
<rect x="75.4516" y="254.452" width="149.097" height="54.0968" rx="27.0484" stroke="url(#paint6_linear_513_22119)" stroke-width="0.903234"/>
</g>
<rect x="83.465" y="262.465" width="133.07" height="37.07" rx="18.535" fill="#18181B"/>
<rect x="83.465" y="262.465" width="133.07" height="37.07" rx="18.535" stroke="#27272A" stroke-width="0.930032"/>
<path d="M104.773 277.772C104.705 277.196 104.428 276.75 103.943 276.431C103.458 276.113 102.864 275.954 102.159 275.954C101.644 275.954 101.193 276.037 100.807 276.204C100.424 276.371 100.125 276.6 99.9091 276.892C99.697 277.183 99.5909 277.515 99.5909 277.886C99.5909 278.196 99.6648 278.464 99.8125 278.687C99.964 278.907 100.157 279.09 100.392 279.238C100.627 279.382 100.873 279.501 101.131 279.596C101.388 279.687 101.625 279.761 101.841 279.818L103.023 280.136C103.326 280.215 103.663 280.325 104.034 280.465C104.409 280.606 104.767 280.797 105.108 281.039C105.453 281.278 105.737 281.585 105.96 281.96C106.184 282.335 106.295 282.795 106.295 283.34C106.295 283.969 106.131 284.537 105.801 285.045C105.475 285.553 104.998 285.956 104.369 286.255C103.744 286.554 102.985 286.704 102.091 286.704C101.258 286.704 100.536 286.57 99.9261 286.301C99.3201 286.032 98.8428 285.657 98.4943 285.176C98.1496 284.695 97.9545 284.136 97.9091 283.5H99.3636C99.4015 283.939 99.5492 284.303 99.8068 284.59C100.068 284.875 100.398 285.087 100.795 285.227C101.197 285.363 101.629 285.431 102.091 285.431C102.629 285.431 103.112 285.344 103.54 285.17C103.968 284.992 104.307 284.746 104.557 284.431C104.807 284.113 104.932 283.742 104.932 283.318C104.932 282.931 104.824 282.617 104.608 282.375C104.392 282.132 104.108 281.935 103.756 281.784C103.403 281.632 103.023 281.5 102.614 281.386L101.182 280.977C100.273 280.715 99.553 280.342 99.0227 279.857C98.4924 279.373 98.2273 278.738 98.2273 277.954C98.2273 277.303 98.4034 276.734 98.7557 276.25C99.1117 275.761 99.589 275.382 100.188 275.113C100.79 274.84 101.462 274.704 102.205 274.704C102.955 274.704 103.621 274.839 104.205 275.107C104.788 275.373 105.25 275.736 105.591 276.198C105.936 276.66 106.117 277.185 106.136 277.772H104.773ZM108.43 286.5V277.772H109.771V286.5H108.43ZM109.112 276.318C108.851 276.318 108.625 276.229 108.436 276.051C108.25 275.873 108.158 275.659 108.158 275.409C108.158 275.159 108.25 274.945 108.436 274.767C108.625 274.589 108.851 274.5 109.112 274.5C109.374 274.5 109.597 274.589 109.783 274.767C109.972 274.945 110.067 275.159 110.067 275.409C110.067 275.659 109.972 275.873 109.783 276.051C109.597 276.229 109.374 276.318 109.112 276.318ZM112.227 286.5V277.772H113.523V279.136H113.636C113.818 278.67 114.112 278.308 114.517 278.051C114.922 277.789 115.409 277.659 115.977 277.659C116.553 277.659 117.032 277.789 117.415 278.051C117.801 278.308 118.102 278.67 118.318 279.136H118.409C118.633 278.685 118.968 278.327 119.415 278.062C119.862 277.793 120.398 277.659 121.023 277.659C121.803 277.659 122.441 277.903 122.938 278.392C123.434 278.876 123.682 279.632 123.682 280.659V286.5H122.341V280.659C122.341 280.015 122.165 279.554 121.812 279.278C121.46 279.001 121.045 278.863 120.568 278.863C119.955 278.863 119.479 279.049 119.142 279.42C118.805 279.787 118.636 280.253 118.636 280.818V286.5H117.273V280.522C117.273 280.026 117.112 279.626 116.79 279.323C116.468 279.017 116.053 278.863 115.545 278.863C115.197 278.863 114.871 278.956 114.568 279.142C114.269 279.327 114.027 279.585 113.841 279.914C113.659 280.24 113.568 280.617 113.568 281.045V286.5H112.227ZM126.134 289.772V277.772H127.429V279.159H127.588C127.687 279.007 127.823 278.814 127.997 278.579C128.175 278.34 128.429 278.128 128.759 277.943C129.092 277.753 129.543 277.659 130.111 277.659C130.846 277.659 131.493 277.842 132.054 278.21C132.615 278.577 133.052 279.098 133.366 279.772C133.681 280.446 133.838 281.242 133.838 282.159C133.838 283.083 133.681 283.884 133.366 284.562C133.052 285.236 132.616 285.759 132.06 286.13C131.503 286.498 130.861 286.681 130.134 286.681C129.573 286.681 129.124 286.589 128.787 286.403C128.45 286.214 128.19 286 128.009 285.761C127.827 285.518 127.687 285.318 127.588 285.159H127.474V289.772H126.134ZM127.452 282.136C127.452 282.795 127.548 283.376 127.741 283.88C127.935 284.38 128.217 284.772 128.588 285.056C128.959 285.337 129.414 285.477 129.952 285.477C130.512 285.477 130.98 285.329 131.355 285.034C131.734 284.734 132.018 284.333 132.207 283.829C132.401 283.321 132.497 282.757 132.497 282.136C132.497 281.522 132.402 280.969 132.213 280.477C132.027 279.981 131.745 279.589 131.366 279.301C130.991 279.009 130.52 278.863 129.952 278.863C129.406 278.863 128.948 279.001 128.577 279.278C128.205 279.551 127.925 279.933 127.736 280.426C127.546 280.914 127.452 281.484 127.452 282.136ZM137.224 274.863V286.5H135.884V274.863H137.224ZM143.339 286.681C142.499 286.681 141.773 286.496 141.163 286.125C140.557 285.75 140.089 285.227 139.76 284.556C139.434 283.882 139.271 283.098 139.271 282.204C139.271 281.31 139.434 280.522 139.76 279.84C140.089 279.155 140.548 278.621 141.135 278.238C141.726 277.852 142.415 277.659 143.203 277.659C143.658 277.659 144.107 277.734 144.55 277.886C144.993 278.037 145.396 278.284 145.76 278.625C146.124 278.962 146.413 279.409 146.629 279.965C146.845 280.522 146.953 281.208 146.953 282.022V282.59H140.226V281.431H145.589C145.589 280.939 145.491 280.5 145.294 280.113C145.101 279.727 144.824 279.422 144.464 279.198C144.108 278.975 143.688 278.863 143.203 278.863C142.669 278.863 142.207 278.996 141.817 279.261C141.43 279.522 141.133 279.863 140.925 280.284C140.716 280.704 140.612 281.155 140.612 281.636V282.409C140.612 283.068 140.726 283.626 140.953 284.085C141.184 284.539 141.504 284.886 141.913 285.125C142.322 285.359 142.798 285.477 143.339 285.477C143.692 285.477 144.01 285.428 144.294 285.329C144.582 285.227 144.83 285.075 145.038 284.875C145.247 284.67 145.408 284.416 145.521 284.113L146.817 284.477C146.68 284.916 146.451 285.303 146.129 285.636C145.807 285.965 145.41 286.223 144.936 286.409C144.463 286.59 143.93 286.681 143.339 286.681ZM159.675 279.727L158.47 280.068C158.394 279.867 158.283 279.672 158.135 279.482C157.991 279.289 157.794 279.13 157.544 279.005C157.294 278.88 156.974 278.818 156.584 278.818C156.05 278.818 155.605 278.941 155.249 279.187C154.896 279.429 154.72 279.738 154.72 280.113C154.72 280.446 154.841 280.71 155.084 280.903C155.326 281.096 155.705 281.257 156.22 281.386L157.516 281.704C158.296 281.893 158.877 282.183 159.26 282.573C159.643 282.96 159.834 283.458 159.834 284.068C159.834 284.568 159.69 285.015 159.402 285.409C159.118 285.803 158.72 286.113 158.209 286.34C157.697 286.568 157.103 286.681 156.425 286.681C155.535 286.681 154.798 286.488 154.214 286.102C153.631 285.715 153.262 285.151 153.107 284.409L154.379 284.09C154.5 284.56 154.73 284.912 155.067 285.147C155.408 285.382 155.853 285.5 156.402 285.5C157.027 285.5 157.523 285.367 157.891 285.102C158.262 284.833 158.447 284.511 158.447 284.136C158.447 283.833 158.341 283.579 158.129 283.375C157.917 283.166 157.591 283.011 157.152 282.909L155.697 282.568C154.898 282.378 154.311 282.085 153.936 281.687C153.565 281.285 153.379 280.784 153.379 280.181C153.379 279.689 153.518 279.253 153.794 278.875C154.074 278.496 154.455 278.198 154.936 277.982C155.421 277.767 155.97 277.659 156.584 277.659C157.447 277.659 158.125 277.848 158.618 278.227C159.114 278.606 159.466 279.106 159.675 279.727ZM165.648 277.772V278.909H161.125V277.772H165.648ZM162.443 275.681H163.784V284C163.784 284.378 163.839 284.662 163.949 284.852C164.063 285.037 164.206 285.162 164.381 285.227C164.559 285.287 164.746 285.318 164.943 285.318C165.091 285.318 165.212 285.31 165.307 285.295C165.402 285.276 165.477 285.261 165.534 285.25L165.807 286.454C165.716 286.488 165.589 286.522 165.426 286.556C165.263 286.594 165.057 286.613 164.807 286.613C164.428 286.613 164.057 286.532 163.693 286.369C163.333 286.206 163.034 285.958 162.795 285.625C162.561 285.291 162.443 284.871 162.443 284.363V275.681ZM168.528 289.772C168.301 289.772 168.098 289.753 167.92 289.715C167.742 289.681 167.619 289.647 167.551 289.613L167.892 288.431C168.218 288.515 168.506 288.545 168.756 288.522C169.006 288.5 169.227 288.388 169.42 288.187C169.617 287.99 169.797 287.67 169.96 287.227L170.21 286.545L166.983 277.772H168.438L170.847 284.727H170.938L173.347 277.772H174.801L171.097 287.772C170.93 288.223 170.723 288.596 170.477 288.892C170.231 289.191 169.945 289.412 169.619 289.556C169.297 289.7 168.934 289.772 168.528 289.772ZM177.912 274.863V286.5H176.571V274.863H177.912ZM180.368 286.5V277.772H181.709V286.5H180.368ZM181.05 276.318C180.788 276.318 180.563 276.229 180.374 276.051C180.188 275.873 180.095 275.659 180.095 275.409C180.095 275.159 180.188 274.945 180.374 274.767C180.563 274.589 180.788 274.5 181.05 274.5C181.311 274.5 181.535 274.589 181.72 274.767C181.91 274.945 182.004 275.159 182.004 275.409C182.004 275.659 181.91 275.873 181.72 276.051C181.535 276.229 181.311 276.318 181.05 276.318ZM185.506 281.25V286.5H184.165V277.772H185.46V279.136H185.574C185.778 278.693 186.089 278.337 186.506 278.068C186.922 277.795 187.46 277.659 188.119 277.659C188.71 277.659 189.227 277.78 189.67 278.022C190.114 278.261 190.458 278.625 190.705 279.113C190.951 279.598 191.074 280.212 191.074 280.954V286.5H189.733V281.045C189.733 280.359 189.555 279.825 189.199 279.443C188.843 279.056 188.354 278.863 187.733 278.863C187.305 278.863 186.922 278.956 186.585 279.142C186.252 279.327 185.989 279.598 185.795 279.954C185.602 280.31 185.506 280.742 185.506 281.25ZM197.047 289.954C196.399 289.954 195.842 289.871 195.376 289.704C194.911 289.541 194.522 289.325 194.212 289.056C193.905 288.791 193.661 288.507 193.479 288.204L194.547 287.454C194.668 287.613 194.821 287.795 195.007 288C195.193 288.208 195.446 288.388 195.768 288.539C196.094 288.695 196.52 288.772 197.047 288.772C197.751 288.772 198.333 288.602 198.791 288.261C199.25 287.92 199.479 287.386 199.479 286.659V284.886H199.365C199.267 285.045 199.126 285.242 198.945 285.477C198.767 285.708 198.509 285.914 198.172 286.096C197.839 286.274 197.388 286.363 196.82 286.363C196.115 286.363 195.482 286.196 194.922 285.863C194.365 285.53 193.924 285.045 193.598 284.409C193.276 283.772 193.115 283 193.115 282.09C193.115 281.196 193.272 280.418 193.587 279.755C193.901 279.089 194.339 278.573 194.899 278.21C195.46 277.842 196.107 277.659 196.842 277.659C197.411 277.659 197.861 277.753 198.195 277.943C198.532 278.128 198.789 278.34 198.967 278.579C199.149 278.814 199.289 279.007 199.388 279.159H199.524V277.772H200.82V286.75C200.82 287.5 200.649 288.109 200.308 288.579C199.971 289.053 199.517 289.399 198.945 289.619C198.376 289.842 197.744 289.954 197.047 289.954ZM197.001 285.159C197.539 285.159 197.994 285.035 198.365 284.789C198.736 284.543 199.018 284.189 199.212 283.727C199.405 283.265 199.501 282.712 199.501 282.068C199.501 281.439 199.407 280.884 199.217 280.403C199.028 279.922 198.748 279.545 198.376 279.272C198.005 279 197.547 278.863 197.001 278.863C196.433 278.863 195.96 279.007 195.581 279.295C195.206 279.583 194.924 279.969 194.734 280.454C194.549 280.939 194.456 281.477 194.456 282.068C194.456 282.674 194.551 283.21 194.74 283.676C194.933 284.138 195.217 284.501 195.592 284.767C195.971 285.028 196.441 285.159 197.001 285.159Z" fill="white" fill-opacity="0.85"/>
<foreignObject x="-4" y="165" width="146" height="64"><div xmlns="http://www.w3.org/1999/xhtml" style="backdrop-filter:blur(2px);clip-path:url(#bgblur_7_513_22119_clip_path);height:100%;width:100%"></div></foreignObject><g data-figma-bg-blur-radius="4">
<rect x="0.451617" y="169.452" width="137.097" height="55.0968" rx="27.5484" fill="black" fill-opacity="0.08"/>
<rect x="0.451617" y="169.452" width="137.097" height="55.0968" rx="27.5484" stroke="white" stroke-opacity="0.08" stroke-width="0.903234"/>
<rect x="0.451617" y="169.452" width="137.097" height="55.0968" rx="27.5484" stroke="url(#paint7_linear_513_22119)" stroke-width="0.903234"/>
</g>
<rect x="8.46502" y="177.465" width="120.07" height="39.07" rx="19.535" fill="#18181B"/>
<rect x="8.46502" y="177.465" width="120.07" height="39.07" rx="19.535" stroke="#27272A" stroke-width="0.930032"/>
<path d="M30.4091 203V191.364H34.3409C35.25 191.364 35.9962 191.519 36.5795 191.83C37.1629 192.136 37.5947 192.559 37.875 193.097C38.1553 193.634 38.2955 194.246 38.2955 194.932C38.2955 195.617 38.1553 196.225 37.875 196.756C37.5947 197.286 37.1648 197.703 36.5852 198.006C36.0057 198.305 35.2652 198.455 34.3636 198.455H31.1818V197.182H34.3182C34.9394 197.182 35.4394 197.091 35.8182 196.909C36.2008 196.727 36.4773 196.47 36.6477 196.136C36.822 195.799 36.9091 195.398 36.9091 194.932C36.9091 194.466 36.822 194.059 36.6477 193.71C36.4735 193.362 36.1951 193.093 35.8125 192.903C35.4299 192.71 34.9242 192.614 34.2955 192.614H31.8182V203H30.4091ZM35.8864 197.773L38.75 203H37.1136L34.2955 197.773H35.8864ZM44.027 203.182C43.1861 203.182 42.4607 202.996 41.8509 202.625C41.2448 202.25 40.777 201.727 40.4474 201.057C40.1217 200.383 39.9588 199.598 39.9588 198.705C39.9588 197.811 40.1217 197.023 40.4474 196.341C40.777 195.655 41.2353 195.121 41.8224 194.739C42.4134 194.352 43.1027 194.159 43.8906 194.159C44.3452 194.159 44.794 194.235 45.2372 194.386C45.6804 194.538 46.0838 194.784 46.4474 195.125C46.8111 195.462 47.1009 195.909 47.3168 196.466C47.5327 197.023 47.6406 197.708 47.6406 198.523V199.091H40.9134V197.932H46.277C46.277 197.439 46.1785 197 45.9815 196.614C45.7884 196.227 45.5118 195.922 45.152 195.699C44.7959 195.475 44.3755 195.364 43.8906 195.364C43.3565 195.364 42.8944 195.496 42.5043 195.761C42.1179 196.023 41.8205 196.364 41.6122 196.784C41.4039 197.205 41.2997 197.655 41.2997 198.136V198.909C41.2997 199.568 41.4134 200.127 41.6406 200.585C41.8717 201.04 42.1918 201.386 42.6009 201.625C43.0099 201.86 43.4853 201.977 44.027 201.977C44.3793 201.977 44.6974 201.928 44.9815 201.83C45.2694 201.727 45.5175 201.576 45.7259 201.375C45.9342 201.17 46.0952 200.917 46.2088 200.614L47.5043 200.977C47.3679 201.417 47.1387 201.803 46.8168 202.136C46.4948 202.466 46.0971 202.723 45.6236 202.909C45.1501 203.091 44.6179 203.182 44.027 203.182ZM52.2486 203.205C51.6955 203.205 51.1937 203.1 50.7429 202.892C50.2921 202.68 49.9342 202.375 49.669 201.977C49.4039 201.576 49.2713 201.091 49.2713 200.523C49.2713 200.023 49.3698 199.617 49.5668 199.307C49.7637 198.992 50.027 198.746 50.3565 198.568C50.6861 198.39 51.0497 198.258 51.4474 198.17C51.849 198.08 52.2524 198.008 52.6577 197.955C53.188 197.886 53.6179 197.835 53.9474 197.801C54.2808 197.763 54.5232 197.701 54.6747 197.614C54.83 197.527 54.9077 197.375 54.9077 197.159V197.114C54.9077 196.553 54.7543 196.117 54.4474 195.807C54.1444 195.496 53.6842 195.341 53.0668 195.341C52.4266 195.341 51.9247 195.481 51.5611 195.761C51.1974 196.042 50.9418 196.341 50.794 196.659L49.5213 196.205C49.7486 195.674 50.0516 195.261 50.4304 194.966C50.813 194.667 51.2296 194.458 51.6804 194.341C52.1349 194.22 52.5819 194.159 53.0213 194.159C53.3016 194.159 53.6236 194.193 53.9872 194.261C54.3546 194.326 54.7088 194.46 55.0497 194.665C55.3944 194.869 55.6804 195.178 55.9077 195.591C56.1349 196.004 56.2486 196.557 56.2486 197.25V203H54.9077V201.818H54.8395C54.7486 202.008 54.5971 202.21 54.3849 202.426C54.1728 202.642 53.8906 202.826 53.5384 202.977C53.1861 203.129 52.7562 203.205 52.2486 203.205ZM52.4531 202C52.9834 202 53.4304 201.896 53.794 201.687C54.1615 201.479 54.438 201.21 54.6236 200.881C54.813 200.551 54.9077 200.205 54.9077 199.841V198.614C54.8509 198.682 54.7259 198.744 54.5327 198.801C54.3433 198.854 54.1236 198.902 53.8736 198.943C53.6274 198.981 53.3868 199.015 53.152 199.045C52.9209 199.072 52.7334 199.095 52.5895 199.114C52.241 199.159 51.9152 199.233 51.6122 199.335C51.313 199.434 51.0705 199.583 50.8849 199.784C50.7031 199.981 50.6122 200.25 50.6122 200.591C50.6122 201.057 50.7846 201.409 51.1293 201.648C51.4777 201.883 51.919 202 52.4531 202ZM62.2415 203.182C61.4233 203.182 60.7187 202.989 60.1278 202.602C59.5369 202.216 59.0824 201.684 58.7642 201.006C58.446 200.328 58.2869 199.553 58.2869 198.682C58.2869 197.795 58.4498 197.013 58.7756 196.335C59.1051 195.653 59.5634 195.121 60.1506 194.739C60.7415 194.352 61.4309 194.159 62.2187 194.159C62.8324 194.159 63.3854 194.273 63.8778 194.5C64.3703 194.727 64.7737 195.045 65.0881 195.455C65.4025 195.864 65.5975 196.341 65.6733 196.886H64.3324C64.2301 196.489 64.0028 196.136 63.6506 195.83C63.3021 195.519 62.8324 195.364 62.2415 195.364C61.7187 195.364 61.2604 195.5 60.8665 195.773C60.4763 196.042 60.1714 196.422 59.9517 196.915C59.7358 197.403 59.6278 197.977 59.6278 198.636C59.6278 199.311 59.7339 199.898 59.946 200.398C60.1619 200.898 60.465 201.286 60.8551 201.562C61.2491 201.839 61.7112 201.977 62.2415 201.977C62.59 201.977 62.9062 201.917 63.1903 201.795C63.4744 201.674 63.715 201.5 63.9119 201.273C64.1089 201.045 64.2491 200.773 64.3324 200.455H65.6733C65.5975 200.97 65.41 201.434 65.1108 201.847C64.8153 202.256 64.4233 202.581 63.9347 202.824C63.4498 203.062 62.8854 203.182 62.2415 203.182ZM71.429 194.273V195.409H66.9062V194.273H71.429ZM68.2244 192.182H69.5653V200.5C69.5653 200.879 69.6203 201.163 69.7301 201.352C69.8437 201.538 69.9877 201.663 70.1619 201.727C70.34 201.788 70.5275 201.818 70.7244 201.818C70.8722 201.818 70.9934 201.811 71.0881 201.795C71.1828 201.777 71.2585 201.761 71.3153 201.75L71.5881 202.955C71.4972 202.989 71.3703 203.023 71.2074 203.057C71.0445 203.095 70.8381 203.114 70.5881 203.114C70.2093 203.114 69.8381 203.032 69.4744 202.869C69.1146 202.706 68.8153 202.458 68.5767 202.125C68.3419 201.792 68.2244 201.371 68.2244 200.864V192.182ZM73.8153 203V191.364H75.2244V201.75H80.6335V203H73.8153ZM82.4034 206.273C82.1761 206.273 81.9735 206.254 81.7955 206.216C81.6174 206.182 81.4943 206.148 81.4261 206.114L81.767 204.932C82.0928 205.015 82.3807 205.045 82.6307 205.023C82.8807 205 83.1023 204.888 83.2955 204.687C83.4924 204.491 83.6723 204.17 83.8352 203.727L84.0852 203.045L80.858 194.273H82.3125L84.7216 201.227H84.8125L87.2216 194.273H88.6761L84.9716 204.273C84.8049 204.723 84.5985 205.097 84.3523 205.392C84.1061 205.691 83.8201 205.913 83.4943 206.057C83.1723 206.201 82.8087 206.273 82.4034 206.273ZM91.7869 197.75V203H90.446V194.273H91.7415V195.636H91.8551C92.0597 195.193 92.3703 194.837 92.7869 194.568C93.2036 194.295 93.7415 194.159 94.4006 194.159C94.9915 194.159 95.5085 194.28 95.9517 194.523C96.3949 194.761 96.7396 195.125 96.9858 195.614C97.232 196.098 97.3551 196.712 97.3551 197.455V203H96.0142V197.545C96.0142 196.86 95.8362 196.326 95.4801 195.943C95.124 195.557 94.6354 195.364 94.0142 195.364C93.5862 195.364 93.2036 195.456 92.8665 195.642C92.5331 195.828 92.2699 196.098 92.0767 196.455C91.8835 196.811 91.7869 197.242 91.7869 197.75ZM100.805 194.273L102.896 197.841L104.987 194.273H106.533L103.714 198.636L106.533 203H104.987L102.896 199.614L100.805 203H99.2599L102.033 198.636L99.2599 194.273H100.805Z" fill="white" fill-opacity="0.85"/>
<circle cx="237.007" cy="166.254" r="58.2586" stroke="white" stroke-opacity="0.08" stroke-width="0.903234"/>
<circle cx="237.007" cy="166.254" r="58.2586" stroke="#7236D1" stroke-width="0.903234"/>
<circle cx="237.009" cy="166.254" r="71.8071" stroke="#7236D1" stroke-opacity="0.5" stroke-width="0.903234"/>
<foreignObject x="161.848" y="91.0918" width="150.324" height="150.323"><div xmlns="http://www.w3.org/1999/xhtml" style="backdrop-filter:blur(15px);clip-path:url(#bgblur_8_513_22119_clip_path);height:100%;width:100%"></div></foreignObject><circle data-figma-bg-blur-radius="30" cx="237.009" cy="166.253" r="44.6617" fill="#18181B" stroke="#27272A"/>
<foreignObject x="173.783" y="103.028" width="126.454" height="126.453"><div xmlns="http://www.w3.org/1999/xhtml" style="backdrop-filter:blur(18.97px);clip-path:url(#bgblur_9_513_22119_clip_path);height:100%;width:100%"></div></foreignObject><rect data-figma-bg-blur-radius="37.9358" x="211.719" y="140.963" width="50.5811" height="50.5811" rx="25.2905" fill="#7236D1"/>
<path d="M242.982 154.873L245.035 154.874C246.988 154.874 248.572 156.503 248.572 158.512L248.572 162.731L245.063 162.741V158.512C245.063 158.505 245.062 158.501 245.062 158.501C245.061 158.499 245.059 158.495 245.055 158.491C245.053 158.489 245.051 158.488 245.05 158.487L245.047 158.485L245.045 158.484L245.043 158.483C245.041 158.483 245.039 158.483 245.035 158.483L241.653 158.512L242.982 154.873Z" fill="white"/>
<path d="M233.15 154.874L225.449 154.874L225.449 166.766C225.449 171.845 228.544 176.18 232.899 177.885L233.545 174.246C230.832 172.913 228.958 170.065 228.958 166.766L228.958 158.483H232.695L233.15 154.874Z" fill="white"/>
<path d="M237.011 178.659C236.311 178.659 235.625 178.595 234.96 178.473L236.851 175.049C236.904 175.05 236.957 175.05 237.011 175.05C241.458 175.05 245.063 171.341 245.063 166.766V164.313L248.572 164.304V166.766C248.572 173.335 243.396 178.659 237.011 178.659Z" fill="white"/>
<path d="M232.961 180.886L241.417 164.788H239.362L242.982 154.873H235.403L233.645 167.951H235.669L232.961 180.886Z" fill="white"/>
<defs>
<clipPath id="bgblur_0_513_22119_clip_path" transform="translate(-249 -274)"><rect x="253.452" y="278.452" width="187.097" height="55.0968" rx="27.5484"/>
</clipPath><clipPath id="bgblur_1_513_22119_clip_path" transform="translate(-50 4)"><rect x="54.4516" y="0.451617" width="206.097" height="54.0968" rx="27.0484"/>
</clipPath><clipPath id="bgblur_2_513_22119_clip_path" transform="translate(-59 -78)"><rect x="63.4516" y="82.4516" width="101.097" height="54.0968" rx="27.0484"/>
</clipPath><clipPath id="bgblur_3_513_22119_clip_path" transform="translate(-335 -109)"><rect x="339.452" y="113.452" width="177.097" height="54.0968" rx="27.0484"/>
</clipPath><clipPath id="bgblur_4_513_22119_clip_path" transform="translate(-314 -197)"><rect x="318.452" y="201.452" width="75.0968" height="54.0968" rx="27.0484"/>
</clipPath><clipPath id="bgblur_5_513_22119_clip_path" transform="translate(-265 -32)"><rect x="269.452" y="36.4516" width="77.0968" height="54.0968" rx="27.0484"/>
</clipPath><clipPath id="bgblur_6_513_22119_clip_path" transform="translate(-71 -250)"><rect x="75.4516" y="254.452" width="149.097" height="54.0968" rx="27.0484"/>
</clipPath><clipPath id="bgblur_7_513_22119_clip_path" transform="translate(4 -165)"><rect x="0.451617" y="169.452" width="137.097" height="55.0968" rx="27.5484"/>
</clipPath><clipPath id="bgblur_8_513_22119_clip_path" transform="translate(-161.848 -91.0918)"><circle cx="237.009" cy="166.253" r="44.6617"/>
</clipPath><clipPath id="bgblur_9_513_22119_clip_path" transform="translate(-173.783 -103.028)"><rect x="211.719" y="140.963" width="50.5811" height="50.5811" rx="25.2905"/>
</clipPath><linearGradient id="paint0_linear_513_22119" x1="354.277" y1="387.407" x2="270.853" y2="280.352" gradientUnits="userSpaceOnUse">
<stop offset="0.852839" stop-color="#7236D1" stop-opacity="0"/>
<stop offset="1" stop-color="#7236D1"/>
</linearGradient>
<linearGradient id="paint1_linear_513_22119" x1="115.243" y1="-8.14815" x2="210.437" y2="84.5955" gradientUnits="userSpaceOnUse">
<stop offset="0.782314" stop-color="#7236D1" stop-opacity="0"/>
<stop offset="1" stop-color="#7236D1"/>
</linearGradient>
<linearGradient id="paint2_linear_513_22119" x1="60.6818" y1="103.389" x2="164.508" y2="118.487" gradientUnits="userSpaceOnUse">
<stop offset="0.782314" stop-color="#7236D1" stop-opacity="0"/>
<stop offset="1" stop-color="#7236D1"/>
</linearGradient>
<linearGradient id="paint3_linear_513_22119" x1="517" y1="136.426" x2="339.022" y2="132.782" gradientUnits="userSpaceOnUse">
<stop offset="0.852839" stop-color="#7236D1" stop-opacity="0"/>
<stop offset="1" stop-color="#7236D1"/>
</linearGradient>
<linearGradient id="paint4_linear_513_22119" x1="387.753" y1="256" x2="322.416" y2="216.034" gradientUnits="userSpaceOnUse">
<stop offset="0.835304" stop-color="#7236D1" stop-opacity="0"/>
<stop offset="1" stop-color="#7236D1"/>
</linearGradient>
<linearGradient id="paint5_linear_513_22119" x1="343.838" y1="44.6574" x2="277.463" y2="82.2224" gradientUnits="userSpaceOnUse">
<stop offset="0.852839" stop-color="#7236D1" stop-opacity="0"/>
<stop offset="1" stop-color="#7236D1"/>
</linearGradient>
<linearGradient id="paint6_linear_513_22119" x1="86.4919" y1="333.444" x2="191.268" y2="239.645" gradientUnits="userSpaceOnUse">
<stop offset="0.852839" stop-color="#7236D1" stop-opacity="0"/>
<stop offset="1" stop-color="#7236D1"/>
</linearGradient>
<linearGradient id="paint7_linear_513_22119" x1="-3.13636" y1="190.778" x2="135.142" y2="217.496" gradientUnits="userSpaceOnUse">
<stop offset="0.782314" stop-color="#7236D1" stop-opacity="0"/>
<stop offset="1" stop-color="#7236D1"/>
</linearGradient>
</defs>
</svg>
