<svg width="40" height="40" viewBox="0 0 40 40" fill="none" xmlns="http://www.w3.org/2000/svg">
<g clip-path="url(#clip0_2080_1842)">
<path fill-rule="evenodd" clip-rule="evenodd" d="M10.748 9.33448L5.42765 12.9352C4.84946 13.3265 4.44915 13.9145 4.30853 14.579L3.78838 17.0372C3.7608 17.1675 3.69964 17.2892 3.61046 17.3911L1.19626 20.5006C0.871221 20.8722 0.879059 21.8593 1.76934 22.4914C2.11074 22.7837 2.56719 23.4391 3.08637 24.1847C4.18565 25.7632 5.56618 27.7456 6.73149 27.5397C8.38048 26.9704 10.399 26.7883 11.9488 27.5397C16.7716 31.4147 13.1437 33.5953 11.9488 40.483C12.5877 36.8001 15.9663 30.5051 23.1084 27.1038C22.0512 26.2554 19.3022 25.6235 17.3933 25.4337C17.3933 25.4337 23.258 20.5006 30.4915 18.2338C25.4418 6.42889 17.1067 0.787457 17.1067 0.787457C16.682 0.27132 15.8243 0.440644 15.6473 1.07557C15.5051 2.9418 15.2694 4.21082 14.8804 5.40703L11.9488 2.08347C11.6426 1.72076 11.0304 1.93019 11.0334 2.39661C11.5298 5.10764 11.4601 6.62938 10.748 9.33448ZM16.7777 2.99985C18.7866 6.41045 19.6967 8.34804 20.0054 11.9641C17.8684 10.7714 16.9373 10.4678 15.3658 10.4754C16.2825 7.73646 16.5626 6.08722 16.7777 2.99985Z" fill="white"/>
<path d="M29.6772 27.8891C21.4943 29.7288 16.48 32.8821 12.3013 40.4827C18.6827 29.9635 39.0003 31.8447 39.0003 31.8447C37.8947 29.9741 34.8057 26.508 32.2725 24.84C32.2725 24.84 33.3346 22.8696 39.0003 21.2464C39.0003 21.2464 29.6772 20.5024 24.2986 24.4695C26.2455 25.1767 28.4392 26.3743 29.6772 27.8891Z" fill="white"/>
<path d="M29.6772 27.8891C21.4943 29.7288 16.48 32.8821 12.3013 40.4827C18.6827 29.9635 39.0003 31.8447 39.0003 31.8447C37.8947 29.9741 34.8057 26.508 32.2725 24.84C32.2725 24.84 33.3346 22.8696 39.0003 21.2464C39.0003 21.2464 29.6772 20.5024 24.2986 24.4695C26.2455 25.1767 28.4392 26.3743 29.6772 27.8891Z" fill="url(#paint0_linear_2080_1842)"/>
<path d="M29.6772 27.8891C21.4943 29.7288 16.48 32.8821 12.3013 40.4827C18.6827 29.9635 39.0003 31.8447 39.0003 31.8447C37.8947 29.9741 34.8057 26.508 32.2725 24.84C32.2725 24.84 33.3346 22.8696 39.0003 21.2464C39.0003 21.2464 29.6772 20.5024 24.2986 24.4695C26.2455 25.1767 28.4392 26.3743 29.6772 27.8891Z" fill="url(#paint1_linear_2080_1842)"/>
</g>
<defs>
<linearGradient id="paint0_linear_2080_1842" x1="36.2111" y1="21.191" x2="24.8815" y2="44.0483" gradientUnits="userSpaceOnUse">
<stop stop-color="#3DEAE7"/>
<stop offset="0.474915" stop-color="#DD99E1"/>
<stop offset="0.879307" stop-color="#FF6448"/>
</linearGradient>
<linearGradient id="paint1_linear_2080_1842" x1="36.2111" y1="21.191" x2="24.8815" y2="44.0483" gradientUnits="userSpaceOnUse">
<stop stop-color="#12E5E5"/>
<stop offset="0.456705" stop-color="#C96ED1"/>
<stop offset="0.907104" stop-color="#FF351A"/>
</linearGradient>
<clipPath id="clip0_2080_1842">
<rect width="40" height="40" fill="white"/>
</clipPath>
</defs>
</svg>
